<svg width="2267" height="506" viewBox="0 0 2267 506" fill="none" xmlns="http://www.w3.org/2000/svg">
<path fill-rule="evenodd" clip-rule="evenodd" d="M939 84.7069C950.429 84.7069 954.585 71.0241 961.079 63.5153C965.724 58.143 973.653 59.7449 976 52.2238C981.902 33.3111 966.106 20 945.5 20C924.894 20 911 31.6743 908 49.2238C905 66.7733 918.394 84.7069 939 84.7069Z" fill="#191847"/>
<path fill-rule="evenodd" clip-rule="evenodd" d="M951.935 82.2443C958.411 86.1475 964.774 88.0333 967.76 87.2635C975.25 85.333 975.938 57.9351 970.143 47.1339C964.349 36.3328 934.558 31.625 933.057 53.0255C932.536 60.4529 935.654 67.0814 940.262 72.4901L932 111H956L951.935 82.2443Z" fill="#B28B67"/>
<path fill-rule="evenodd" clip-rule="evenodd" d="M934.617 37.9999C916.234 55.9999 934.687 75.1317 939.743 75.1317C940.07 72.5346 941.065 70.0083 942.524 67.6039C941.749 66.6004 941.29 65.3524 941.29 63.9999C941.29 60.6862 944.046 57.9999 947.447 57.9999C948.509 57.9999 949.508 58.262 950.38 58.7233C957.75 52.4379 966.993 48.0561 971.583 47.1945C979.566 45.6959 953 19.9999 934.617 37.9999Z" fill="#191847"/>
<path fill-rule="evenodd" clip-rule="evenodd" d="M924 194L961.631 317.024L979.86 421.648H994.153L974.891 194H924Z" fill="#997659"/>
<path fill-rule="evenodd" clip-rule="evenodd" d="M910.538 194C913.094 261.547 910.086 296.389 909.514 302.526C908.942 308.663 901.108 348.455 882.564 423.708L897.794 418.478C927.102 349.459 937.089 313.589 940.45 304.526C943.812 295.463 952.739 258.621 967.233 194H910.538Z" fill="#B28B67"/>
<path fill-rule="evenodd" clip-rule="evenodd" d="M885.45 417.284C884.378 416.813 883.104 417.29 882.705 418.391C881.977 420.398 881 423.409 881 425.106C881 427.811 881.901 433 881.901 433C885.039 433 938.303 433 938.303 433C938.303 433 940.502 425.732 935.765 425.152C931.028 424.573 927.895 424.106 927.895 424.106L901.68 412.419C901.165 412.189 900.563 412.43 900.348 412.951L898.663 417.039C898.663 417.039 894.278 419.085 891.537 419.085C889.868 419.085 887.246 418.074 885.45 417.284Z" fill="#E4E4E4"/>
<path fill-rule="evenodd" clip-rule="evenodd" d="M979.45 417.284C978.378 416.813 977.104 417.29 976.705 418.391C975.977 420.398 975 423.409 975 425.106C975 427.811 975.901 433 975.901 433C979.039 433 1032.3 433 1032.3 433C1032.3 433 1034.5 425.732 1029.76 425.152C1025.03 424.573 1021.9 424.106 1021.9 424.106L995.68 412.419C995.165 412.189 994.563 412.43 994.348 412.951L992.663 417.039C992.663 417.039 988.278 419.085 985.537 419.085C983.868 419.085 981.246 418.074 979.45 417.284Z" fill="#E4E4E4"/>
<path fill-rule="evenodd" clip-rule="evenodd" d="M919 194L935 256.68H983.87L976.584 194H919Z" fill="#69A1AC"/>
<path fill-rule="evenodd" clip-rule="evenodd" d="M910 194C902.103 217.671 907 256.68 907 256.68H956.87L970.584 194H910Z" fill="#89C5CC"/>
<path fill-rule="evenodd" clip-rule="evenodd" d="M1040.37 205.758L1012.04 178.123L1002.64 194.403L1032.09 211.77C1039.48 223.405 1043.82 228.432 1045.11 226.852C1046.19 225.519 1045.7 224.058 1045.24 222.713C1044.88 221.665 1044.55 220.687 1045 219.894C1046.05 218.082 1051.96 219.12 1057.54 220.344C1063.11 221.568 1061.82 218.832 1060.63 217.404C1055.37 213.156 1048.61 209.273 1040.37 205.758ZM873.398 245.908C876.328 239.963 886.308 182.02 886.308 182.02L907.205 182.102C907.205 182.102 887.851 244.583 886.308 248.406C884.304 253.372 887.708 260.587 890.016 265.48C890.373 266.237 890.704 266.938 890.985 267.567C887.782 269 886.243 267.268 884.622 265.442C882.79 263.379 880.851 261.197 876.288 263.32C874.525 264.14 872.857 265.109 871.227 266.057C865.597 269.329 860.425 272.336 853.389 267.994C852.274 267.306 851.051 264.715 854.005 262.69C861.362 257.645 871.965 248.815 873.398 245.908Z" fill="#B28B67"/>
<path fill-rule="evenodd" clip-rule="evenodd" d="M945.695 94.3321L954.342 92.8489C969.23 130.039 995.222 163.831 1032.32 194.225L1004.29 228.281C967.194 185.005 944.33 140.355 945.695 94.3321Z" fill="#191847"/>
<path fill-rule="evenodd" clip-rule="evenodd" d="M908 203H985C985 203 958.241 137.938 958.241 92.4607L935.014 89C916.76 118.358 911.605 154.505 908 203Z" fill="#DDE3E9"/>
<path fill-rule="evenodd" clip-rule="evenodd" d="M873 236C881.421 140.996 934.504 89 934.504 89L934.522 89.0164C934.525 89.0109 934.529 89.0055 934.532 89H936.048C938.769 89.0937 944.338 89.3377 944.338 89.3377L949.95 105.377C950.841 134.71 960.351 223.606 960.351 223.606H909.95C910.036 227.682 910.225 231.815 910.531 236H873Z" fill="#2F3676"/>
<path fill-rule="evenodd" clip-rule="evenodd" d="M909.959 224C909.556 206.25 911.131 189.584 913.758 174.502C915.132 192.399 918.003 213.933 924 224H909.959Z" fill="black" fill-opacity="0.1"/>
<path fill-rule="evenodd" clip-rule="evenodd" d="M921.111 193L946 181.429V193H921.111Z" fill="white" fill-opacity="0.2"/>
<path fill-rule="evenodd" clip-rule="evenodd" d="M1316.06 155.244C1309.59 159.147 1303.23 161.033 1300.24 160.263C1292.75 158.333 1292.06 130.935 1297.86 120.134C1303.65 109.333 1333.44 104.625 1334.94 126.025C1335.46 133.453 1332.35 140.081 1327.74 145.49L1336 184H1312L1316.06 155.244Z" fill="#915B3C"/>
<path fill-rule="evenodd" clip-rule="evenodd" d="M1329.58 150.308C1332.59 136.906 1341.18 127.771 1339.86 121.782C1338.55 115.792 1332.88 114.332 1332.88 114.332C1332.88 114.332 1329.94 102.457 1313.94 104.23C1297.95 106.004 1288.18 112.648 1292.4 127.268C1296.27 127.268 1300.95 125.866 1307.42 128.268C1310.5 129.411 1311.83 135.358 1311.83 135.358H1314.75C1314.75 135.358 1319.01 128.301 1323.15 130.171C1327.29 132.042 1325.03 139.259 1325.03 139.259L1326.47 150.308H1329.58Z" fill="#191847"/>
<path fill-rule="evenodd" clip-rule="evenodd" d="M1403 309C1411.84 309 1419 316.163 1419 325V417C1419 425.837 1411.84 433 1403 433H1288C1279.16 433 1272 425.837 1272 417V325C1272 316.163 1279.16 309 1288 309H1403ZM1387 337C1389.21 337 1391 338.791 1391 341V401C1391 403.209 1389.21 405 1387 405H1304C1301.79 405 1300 403.209 1300 401V341C1300 338.791 1301.79 337 1304 337H1387Z" fill="#C5CFD6"/>
<path fill-rule="evenodd" clip-rule="evenodd" d="M1172.84 428C1192.56 403.924 1205.9 386.075 1212.86 374.454C1224.79 354.555 1234.55 336.848 1237.63 330.084C1244.97 313.955 1220.72 306.403 1215.23 313.926C1206.92 325.312 1189.18 361.143 1162 421.417L1172.84 428Z" fill="#B28B67"/>
<path fill-rule="evenodd" clip-rule="evenodd" d="M1213.24 421L1249.93 328.637C1257.78 311.8 1219.88 300.732 1214.12 308.568C1201.02 326.357 1169.9 396.534 1166 401.834L1213.24 421Z" fill="#2F3676"/>
<path fill-rule="evenodd" clip-rule="evenodd" d="M1310.97 402.477C1303.82 392.051 1277.82 356.974 1263.66 342.461C1259.59 338.291 1255.62 334.288 1251.87 330.557C1240.7 319.47 1218.48 338.106 1229.62 348.205C1257.36 373.355 1297.85 407.307 1301.23 410.334C1305.97 414.577 1315.46 409.029 1310.97 402.477Z" fill="#915B3C"/>
<path fill-rule="evenodd" clip-rule="evenodd" d="M1306.34 398.185C1307.03 397.241 1308.37 397.017 1309.27 397.771C1310.9 399.146 1313.25 401.264 1314.1 402.734C1315.45 405.076 1317.27 410.021 1317.27 410.021C1314.55 411.59 1268.42 438.222 1268.42 438.222C1268.42 438.222 1262.88 433.027 1266.7 430.156C1270.51 427.286 1272.99 425.315 1272.99 425.315L1289.85 402.087C1290.18 401.631 1290.82 401.538 1291.27 401.882L1294.77 404.579C1294.77 404.579 1299.59 404.158 1301.97 402.788C1303.41 401.953 1305.18 399.767 1306.34 398.185Z" fill="#E4E4E4"/>
<path fill-rule="evenodd" clip-rule="evenodd" d="M1178.55 423.284C1179.62 422.813 1180.9 423.29 1181.29 424.391C1182.02 426.398 1183 429.409 1183 431.106C1183 433.811 1182.1 439 1182.1 439C1178.96 439 1125.7 439 1125.7 439C1125.7 439 1123.5 431.732 1128.24 431.152C1132.97 430.573 1136.1 430.106 1136.1 430.106L1162.32 418.419C1162.83 418.189 1163.44 418.43 1163.65 418.951L1165.34 423.039C1165.34 423.039 1169.72 425.085 1172.46 425.085C1174.13 425.085 1176.75 424.074 1178.55 423.284Z" fill="#E4E4E4"/>
<path fill-rule="evenodd" clip-rule="evenodd" d="M1263.14 333.25C1263.14 333.25 1308.88 325.798 1324.42 323.058C1353.94 317.852 1362.55 301.965 1357.46 267.302L1303.07 267.302C1292.27 270.42 1212.83 305.872 1212.83 305.872C1203.3 310.602 1205.08 324.548 1206.82 329.142C1206.93 329.423 1255.01 411.713 1255.01 411.713L1299.51 383.366L1263.05 336.59C1263.05 336.59 1261.61 333.682 1263.14 333.25Z" fill="#5C63AB"/>
<path fill-rule="evenodd" clip-rule="evenodd" d="M1227.32 277.635L1259.22 254.211L1266.27 271.642L1234.68 284.741C1225.75 295.235 1220.75 299.61 1219.7 297.865C1218.8 296.394 1219.5 295.017 1220.14 293.748C1220.64 292.76 1221.11 291.838 1220.77 290.989C1219.98 289.049 1213.98 289.254 1208.29 289.691C1202.61 290.128 1204.27 287.598 1205.64 286.348C1211.44 282.874 1218.67 279.97 1227.32 277.635ZM1394.6 318.908C1391.67 312.963 1381.69 255.02 1381.69 255.02L1360.79 255.102C1360.79 255.102 1380.15 317.583 1381.69 321.406C1383.7 326.372 1380.29 333.587 1377.98 338.48C1377.63 339.237 1377.3 339.938 1377.02 340.567C1380.22 342 1381.76 340.268 1383.38 338.442C1385.21 336.379 1387.15 334.196 1391.71 336.319C1393.48 337.14 1395.14 338.109 1396.77 339.057C1402.4 342.329 1407.58 345.336 1414.61 340.994C1415.73 340.306 1416.95 337.715 1414 335.69C1406.64 330.644 1396.03 321.815 1394.6 318.908Z" fill="#915B3C"/>
<path fill-rule="evenodd" clip-rule="evenodd" d="M1322.31 167.332L1313.66 165.849C1281.57 193.564 1268.4 246.809 1229.07 275.015L1238.54 286.748C1306.76 278.301 1323.67 213.355 1322.31 167.332Z" fill="#E87613"/>
<path fill-rule="evenodd" clip-rule="evenodd" d="M1360 276C1360 276 1307.99 276 1283.49 276C1279.99 276 1280.65 270.952 1281.16 268.404C1286.99 239.004 1309.76 207.312 1309.76 165.461L1331.83 162C1350.08 191.358 1356.4 227.505 1360 276Z" fill="#DDE3E9"/>
<path fill-rule="evenodd" clip-rule="evenodd" d="M1368.6 297C1372.04 305.259 1375.41 312.465 1378.59 318H1395C1396.77 260.919 1375.15 216.996 1357.07 190.513C1361.08 190.226 1364.71 188.545 1367 184.411C1375.07 169.856 1372.15 161.842 1363.53 159.208C1358.79 157.76 1354.33 158.748 1349 159.932C1344.63 160.9 1339.68 161.999 1333.5 162C1333.49 162 1333.49 162 1333.49 162C1332.89 162 1332.35 162.04 1331.85 162.117L1324.53 162.535C1324.53 162.535 1294.79 263.305 1308.13 297H1368.6Z" fill="#FF9B21"/>
<path fill-rule="evenodd" clip-rule="evenodd" d="M1368.6 297C1364.09 286.164 1359.46 273.516 1355.01 260.454C1353.36 274.839 1350.6 289.286 1346 297H1368.6Z" fill="black" fill-opacity="0.1"/>
<path fill-rule="evenodd" clip-rule="evenodd" d="M1524.06 155.244C1517.59 159.147 1511.23 161.033 1508.24 160.263C1500.75 158.333 1500.06 130.935 1505.86 120.134C1511.65 109.333 1541.44 104.625 1542.94 126.025C1543.46 133.453 1540.35 140.081 1535.74 145.49L1544 184H1520L1524.06 155.244Z" fill="#B28B67"/>
<path fill-rule="evenodd" clip-rule="evenodd" d="M1515.34 108.37C1518.62 107.37 1523.38 107.031 1525.38 107.26C1524.24 104.531 1523.79 101.49 1524.16 98.5291C1524.51 95.6521 1525.8 93.2024 1526.99 90.6354C1527.54 89.4522 1528.16 88.2754 1529.08 87.3704C1530.03 86.4483 1531.22 85.8397 1532.47 85.5494C1533.76 85.2522 1535.09 85.2769 1536.38 85.5466C1536.95 85.6659 1537.46 85.9255 1538.01 86.0698C1538.58 86.2176 1538.86 85.8608 1539.27 85.5021C1540.27 84.638 1541.73 84.2114 1542.99 84.0587C1544.41 83.8875 1545.88 84.101 1547.23 84.5664C1548.54 85.0194 1549.81 85.7551 1550.76 86.8268C1551.18 87.3039 1551.56 87.8469 1551.81 88.4464C1551.91 88.6924 1551.93 88.8381 1552.18 88.9283C1552.4 89.0117 1552.67 89.0141 1552.9 89.0935C1555.17 89.8609 1557.11 91.6117 1558.16 93.8595C1558.78 95.1709 1559.07 97.4798 1558.99 100.068C1558.91 102.656 1556.57 109.408 1554.39 111.871C1552.44 114.07 1549.57 115.52 1546.8 116.155C1548.64 118.255 1549.86 120.878 1550.76 123.547C1551.75 126.445 1552.35 129.457 1552.58 132.525C1552.79 135.44 1552.81 138.524 1552.13 141.377C1551.49 144.045 1550.12 146.234 1547.84 147.622C1546.79 148.258 1545.67 148.736 1544.54 149.173C1543.42 149.603 1542.3 150.022 1541.14 150.263C1538.93 150.72 1536.38 150.642 1534.68 148.882C1534.06 148.248 1533.39 147.451 1532.94 146.676C1532.78 146.397 1532.68 146.215 1532.88 145.943C1533.11 145.616 1533.49 145.366 1533.79 145.111C1535.51 143.656 1536.57 141.713 1536.84 139.405C1537.11 137.063 1536.48 134.039 1534.2 133.017C1531.39 131.755 1528.3 133.204 1525.8 134.554C1524.74 130.806 1522.55 127.431 1519.14 125.712C1515.35 123.811 1511.02 123.588 1507.13 121.956C1506.12 121.531 1505.08 121.048 1504.34 120.182C1504.03 119.82 1503.66 119.35 1503.54 118.871C1503.37 118.242 1503.78 117.715 1504.09 117.224C1505.75 114.624 1512.06 109.37 1515.34 108.37Z" fill="#191847"/>
<path fill-rule="evenodd" clip-rule="evenodd" d="M1433.79 341.672C1435.65 362.013 1433.79 405.736 1432.79 418.348C1432.16 426.275 1421.36 424.2 1420.35 417.856C1420.18 416.781 1419.48 413.005 1418.45 407.372C1413.35 379.746 1400.02 307.446 1400 289.866C1399.99 281.804 1417.94 275.358 1425.12 285.096C1431.02 280.949 1439.4 279.838 1444.56 288.212C1448.47 294.552 1457.77 312.55 1467.68 333.566C1476.36 351.978 1489.92 396.672 1489.92 396.672L1478.41 401.934C1478.41 401.934 1449.96 356.195 1432.05 324.127C1432.64 329.645 1433.23 335.553 1433.79 341.672Z" fill="#B28B67"/>
<path fill-rule="evenodd" clip-rule="evenodd" d="M1489.1 380.125L1449.57 286.487C1440.1 271.255 1413.55 289.587 1416.78 298.422C1424.11 318.479 1461.4 383.414 1463.58 389.39L1489.1 380.125Z" fill="#1F28CF"/>
<path fill-rule="evenodd" clip-rule="evenodd" d="M1399 297.177C1399 323.718 1410.63 386.106 1410.64 391.95L1438.82 391C1438.82 391 1431.43 309.636 1432.59 309.085C1434.33 308.258 1503.74 318.691 1524.56 319.479C1554.57 320.615 1566.99 302.199 1568 267.251L1509.85 267.251C1509.85 267.251 1435.27 276.153 1411.82 279.635C1401.77 281.125 1399 289.865 1399 297.177Z" fill="#2B44FF"/>
<path fill-rule="evenodd" clip-rule="evenodd" d="M1488.52 393.322C1489.45 392.605 1490.8 392.76 1491.45 393.732C1492.65 395.504 1494.32 398.188 1494.73 399.835C1495.39 402.459 1495.77 407.713 1495.77 407.713C1492.72 408.472 1441.04 421.357 1441.04 421.357C1441.04 421.357 1437.15 414.837 1441.61 413.129C1446.06 411.421 1448.99 410.209 1448.99 410.209L1471.6 392.528C1472.04 392.181 1472.68 392.269 1473.02 392.722L1475.64 396.281C1475.64 396.281 1480.39 397.205 1483.05 396.542C1484.67 396.138 1486.97 394.523 1488.52 393.322Z" fill="#E4E4E4"/>
<path fill-rule="evenodd" clip-rule="evenodd" d="M1431.55 402.284C1432.62 401.813 1433.9 402.29 1434.29 403.391C1435.02 405.398 1436 408.409 1436 410.106C1436 412.811 1435.1 418 1435.1 418C1431.96 418 1378.7 418 1378.7 418C1378.7 418 1376.5 410.732 1381.24 410.152C1385.97 409.573 1389.1 409.106 1389.1 409.106L1415.32 397.419C1415.83 397.189 1416.44 397.43 1416.65 397.951L1418.34 402.039C1418.34 402.039 1422.72 404.085 1425.46 404.085C1427.13 404.085 1429.75 403.074 1431.55 402.284Z" fill="#E4E4E4"/>
<rect width="53" height="7" rx="3.5" transform="matrix(-1 0 0 1 1435 418)" fill="#2F3676"/>
<path d="M1581 283C1581 277.477 1576.52 273 1571 273H1464C1458.48 273 1454 277.477 1454 283V332H1577C1579.21 332 1581 330.209 1581 328V283Z" fill="#2F3676"/>
<path fill-rule="evenodd" clip-rule="evenodd" d="M1464 273H1461.81C1456.91 273 1452.73 276.547 1451.94 281.38L1430 415H1440.69" fill="#2F3676"/>
<path fill-rule="evenodd" clip-rule="evenodd" d="M1435 435C1425.06 435 1417 426.941 1417 417C1417 407.059 1425.06 399 1435 399C1444.94 399 1453 407.059 1453 417C1453 426.941 1444.94 435 1435 435Z" fill="#191847"/>
<path fill-rule="evenodd" clip-rule="evenodd" d="M1492 357C1492 398.974 1526.03 433 1568 433C1609.97 433 1644 398.974 1644 357C1644 315.026 1609.97 281 1568 281C1526.03 281 1492 315.026 1492 357ZM1506 357C1506 391.242 1533.76 419 1568 419C1602.24 419 1630 391.242 1630 357C1630 322.758 1602.24 295 1568 295C1533.76 295 1506 322.758 1506 357Z" fill="#191847"/>
<rect width="8" height="132" transform="matrix(-1 0 0 1 1572 291)" fill="#191847"/>
<rect width="8" height="132" rx="2" transform="matrix(-0.707107 0.707107 0.707107 0.707107 1524.16 307.503)" fill="#191847"/>
<rect width="8" height="132" rx="2" transform="matrix(0 1 1 0 1502 353)" fill="#191847"/>
<rect width="8" height="132" rx="2" transform="matrix(0.707107 0.707107 0.707107 -0.707107 1518.5 400.841)" fill="#191847"/>
<path fill-rule="evenodd" clip-rule="evenodd" d="M1428.64 152.962L1466.54 164.341L1456.87 180.463L1427.4 163.118C1413.64 162.299 1407.14 160.942 1407.9 159.048C1408.53 157.451 1410.05 157.179 1411.45 156.928C1412.54 156.733 1413.56 156.55 1414.03 155.765C1415.11 153.971 1411.33 149.301 1407.56 145.023C1403.79 140.745 1406.81 140.546 1408.63 140.889C1414.9 143.433 1421.57 147.458 1428.64 152.962ZM1437.99 254.592L1469.89 231.168L1476.94 248.599L1445.36 261.698C1436.42 272.192 1431.43 276.566 1430.37 274.822C1429.48 273.351 1430.18 271.974 1430.82 270.705C1431.32 269.717 1431.78 268.795 1431.44 267.946C1430.66 266.006 1424.66 266.21 1418.97 266.648C1413.28 267.085 1414.94 264.555 1416.31 263.305C1422.12 259.831 1429.34 256.926 1437.99 254.592Z" fill="#B28B67"/>
<path fill-rule="evenodd" clip-rule="evenodd" d="M1519.44 168.087C1502.07 200.476 1476.95 225.305 1440.53 251.116L1454.32 266.663C1494.98 251.553 1516.44 242.436 1526.98 211.835C1529.62 204.154 1531.47 179.671 1533.06 166.789L1519.44 168.087Z" fill="#2026A2"/>
<path fill-rule="evenodd" clip-rule="evenodd" d="M1568 276H1491C1491 276 1517.16 196.208 1517.73 166.472C1517.75 165.461 1519.62 163.68 1520.44 163.913C1529.5 166.472 1539.83 162 1539.83 162C1558.08 191.358 1564.4 227.505 1568 276Z" fill="#F2F2F2"/>
<path fill-rule="evenodd" clip-rule="evenodd" d="M1520.51 206.791C1508.49 258.377 1509.04 300.606 1535.59 300.606H1576.65C1583.17 256.784 1566.03 196.024 1550.14 165.377C1549.54 164.206 1548.25 162 1545.2 162H1533.27C1533.27 162.016 1533.26 162.032 1533.26 162.047C1529.67 162.077 1525.71 162.208 1521.43 162.35C1499.39 163.082 1468.66 164.102 1434.08 153L1430 173.373C1461.21 193.448 1492.82 208.999 1520.51 206.791Z" fill="#1F28CF"/>
<path fill-rule="evenodd" clip-rule="evenodd" d="M742.935 82.2443C749.411 86.1475 755.774 88.0333 758.76 87.2635C766.25 85.333 766.938 57.9351 761.143 47.1339C755.349 36.3328 725.558 31.625 724.057 53.0255C723.536 60.4529 726.654 67.0814 731.262 72.4901L723 111H747L742.935 82.2443Z" fill="#B28B67"/>
<path fill-rule="evenodd" clip-rule="evenodd" d="M744.135 55.3889C746.211 52.2979 748.204 49.9401 750.797 48.571C761.348 48.7377 762.583 46.8462 762.583 40.471C760.879 39.2515 754.866 37.1982 748.132 36.6206C744.697 35.6375 740.627 35.8224 736.707 37.4622C731.868 38.8352 727.77 41.7923 725.96 47.3283C719.412 58.629 724.382 70.3927 731.08 74.4112C732.863 72.2989 734.419 70.2518 735.807 68.2922C734.692 67.2027 734 65.6822 734 64C734 60.6863 736.686 58 740 58C740.244 58 740.484 58.0145 740.72 58.0427C740.869 62.1858 741.483 76.2027 743.094 81.0715C744.995 86.8116 756.084 88.221 759.951 88.221C763.292 88.221 763.178 85.0578 763.096 82.7908C763.084 82.4643 763.073 82.1564 763.073 81.8792C763.073 81.3001 762.32 81.3016 761.469 81.3033C760.364 81.3055 759.094 81.308 759.094 80.0401C759.094 78.6579 761.004 77.5978 762.713 76.6491C763.779 76.0572 764.768 75.5087 765.165 74.9525C766.419 73.1977 766.841 70.8311 764.95 70.8311C763.916 70.8311 762.497 71.427 760.791 72.144C758.215 73.2264 754.983 74.5847 751.426 74.5847C745.55 74.5847 744.153 55.6261 744.135 55.3889Z" fill="#191847"/>
<path fill-rule="evenodd" clip-rule="evenodd" d="M715 194L751.255 321.227L777.707 415H797L768.891 194H715Z" fill="#191847"/>
<path fill-rule="evenodd" clip-rule="evenodd" d="M705.304 194C704.466 259.574 701.606 295.34 700.726 301.298C699.845 307.256 686.532 345.156 660.786 415H680.773C713.549 347.997 731.846 310.096 735.663 301.298C739.479 292.5 751.259 256.734 769 194H705.304Z" fill="#2F3676"/>
<path fill-rule="evenodd" clip-rule="evenodd" d="M659 433L660 412L681 412C695.936 422.5 720 429 720 429V433H682L669 431V433H659Z" fill="#191847"/>
<path fill-rule="evenodd" clip-rule="evenodd" d="M775 433L776 412L797 412C811.936 422.5 836 429 836 429V433H798L785 431V433H775Z" fill="#191847"/>
<path fill-rule="evenodd" clip-rule="evenodd" d="M637.364 230.284C641.094 224.804 662.667 166.536 662.667 166.536L680.379 169.108C680.379 169.108 651.861 230.982 649.801 234.554C647.126 239.193 649.492 246.812 651.097 251.978C651.345 252.777 651.575 253.518 651.766 254.179C648.395 255.153 647.112 253.223 645.76 251.189C644.233 248.892 642.617 246.461 637.803 247.928C635.943 248.495 634.156 249.223 632.41 249.934C626.38 252.391 620.84 254.648 614.476 249.37C613.468 248.533 612.618 245.797 615.824 244.203C623.813 240.231 635.541 232.963 637.364 230.284ZM829.545 203.202L799.359 177.61L791.109 194.507L821.706 209.777C829.885 220.868 834.564 225.581 835.74 223.914C836.732 222.509 836.133 221.087 835.581 219.776C835.151 218.756 834.75 217.803 835.152 216.98C836.07 215.1 842.042 215.722 847.684 216.555C853.326 217.388 851.85 214.748 850.569 213.406C845.021 209.536 838.013 206.134 829.545 203.202Z" fill="#B28B67"/>
<path fill-rule="evenodd" clip-rule="evenodd" d="M736.695 94.3321L747.67 90.7027C762.557 127.893 784.761 163.876 821.857 194.27L812.684 210.097C780.081 190.892 749.219 175.973 736.695 147.155C732.492 137.483 736.352 105.897 736.695 94.3321Z" fill="#C5CFD6"/>
<path fill-rule="evenodd" clip-rule="evenodd" d="M699 199C699 199 746.157 204 773.236 199C775.473 198.587 775.826 194.842 774.788 192.301C758.636 152.724 747.56 118.192 747.56 90.7026C743.115 92.9439 732 91.3744 732 91.3744C712.086 119.703 702.933 152.206 699 199Z" fill="#323337"/>
<path fill-rule="evenodd" clip-rule="evenodd" d="M726.293 89C726.807 88.6536 727.079 88.4813 727.079 88.4813L727.049 89H735.348C735.765 91.4526 736.376 100.543 737.267 113.798C740.504 161.965 747.436 265.127 762.191 304.606H660.385C662.533 259.722 679.082 206.047 696.224 160.47C683.574 173.056 668.801 194.153 656.862 229.273L637.793 224.378C657.226 140.638 714.162 97.4517 725.21 89.7438C725.317 89.4945 725.425 89.2466 725.532 89H726.293Z" fill="#DDE3E9"/>
<path fill-rule="evenodd" clip-rule="evenodd" d="M534.935 82.2443C541.411 86.1475 547.774 88.0333 550.76 87.2635C558.25 85.333 558.938 57.9351 553.143 47.1339C547.349 36.3328 517.558 31.625 516.057 53.0255C515.536 60.4529 518.654 67.0814 523.262 72.4901L515 111H539L534.935 82.2443Z" fill="#B28B67"/>
<path fill-rule="evenodd" clip-rule="evenodd" d="M543.663 35.37C540.384 34.37 535.623 34.0308 533.621 34.2603C534.76 31.5308 535.212 28.4899 534.844 25.5291C534.485 22.6521 533.2 20.2024 532.011 17.6354C531.463 16.4522 530.842 15.2754 529.916 14.3704C528.972 13.4483 527.778 12.8397 526.526 12.5494C525.245 12.2522 523.905 12.2769 522.622 12.5466C522.054 12.6659 521.545 12.9255 520.988 13.0698C520.418 13.2176 520.141 12.8608 519.727 12.5021C518.73 11.638 517.268 11.2114 516.006 11.0587C514.59 10.8875 513.121 11.101 511.771 11.5664C510.457 12.0194 509.195 12.7551 508.245 13.8268C507.822 14.3039 507.438 14.8469 507.188 15.4464C507.086 15.6924 507.069 15.8381 506.823 15.9283C506.596 16.0117 506.331 16.0141 506.096 16.0935C503.831 16.8609 501.893 18.6117 500.838 20.8595C500.223 22.1709 499.932 24.4798 500.011 27.0677C500.091 29.6556 502.428 36.4081 504.613 38.8711C506.564 41.0695 509.432 42.5203 512.199 43.1553C510.362 45.2548 509.14 47.8784 508.235 50.5467C507.253 53.445 506.645 56.4566 506.421 59.5251C506.208 62.4405 506.188 65.5235 506.871 68.3767C507.511 71.0448 508.878 73.2337 511.161 74.6223C512.206 75.2584 513.331 75.7363 514.463 76.173C515.578 76.6034 516.696 77.0219 517.864 77.2634C520.075 77.7203 522.622 77.6418 524.325 75.8822C524.939 75.2479 525.614 74.4508 526.061 73.6759C526.222 73.3972 526.32 73.215 526.124 72.9426C525.89 72.6164 525.511 72.3664 525.21 72.1112C523.493 70.6561 522.43 68.7135 522.163 66.4049C521.891 64.0626 522.52 61.0393 524.797 60.017C527.608 58.7552 530.704 60.2036 533.203 61.5537C534.265 57.806 536.445 54.4315 539.863 52.7124C543.645 50.8105 547.985 50.5879 551.871 48.9561C552.884 48.5309 553.915 48.0482 554.661 47.1818C554.973 46.8197 555.338 46.35 555.463 45.871C555.626 45.242 555.22 44.7145 554.907 44.2241C553.245 41.6236 546.943 36.37 543.663 35.37Z" fill="#191847"/>
<path fill-rule="evenodd" clip-rule="evenodd" d="M509 194L583.306 318.227L639.015 423.25H651.014L557.674 194L509 194Z" fill="#997659"/>
<path fill-rule="evenodd" clip-rule="evenodd" d="M634.45 417.284C633.378 416.813 632.104 417.29 631.705 418.391C630.977 420.398 630 423.409 630 425.106C630 427.811 630.901 433 630.901 433C634.039 433 687.303 433 687.303 433C687.303 433 689.502 425.732 684.765 425.152C680.028 424.573 676.895 424.106 676.895 424.106L650.68 412.419C650.165 412.189 649.563 412.43 649.348 412.951L647.663 417.039C647.663 417.039 643.278 419.085 640.537 419.085C638.868 419.085 636.246 418.074 634.45 417.284Z" fill="#E4E4E4"/>
<path fill-rule="evenodd" clip-rule="evenodd" d="M623.543 406.433L646.683 399.433C646.683 399.433 631.476 353.971 609.405 299.374C587.335 244.778 562 194 562 194H496.644C496.644 194 524.811 258.232 556.366 310.725C587.921 363.219 623.543 406.433 623.543 406.433Z" fill="#DB2721"/>
<path fill-rule="evenodd" clip-rule="evenodd" d="M504.117 194C497.104 237.654 483.577 293.427 482.301 295.149C481.45 296.296 450.813 306.562 390.39 325.947L392.982 336.528C465.036 326.132 503.002 318.066 506.881 312.331C512.699 303.728 541.749 235.763 553 194H504.117Z" fill="#B28B67"/>
<path fill-rule="evenodd" clip-rule="evenodd" d="M411.63 316.8L416.195 333.842C470.087 338.569 503.108 335.153 515.258 323.596C527.407 312.039 541.255 268.84 556.799 194H494.478C484.63 255.284 479.124 287.212 477.96 289.785C476.797 292.357 454.687 301.363 411.63 316.8Z" fill="#FF4133"/>
<path fill-rule="evenodd" clip-rule="evenodd" d="M394.931 324.074C395.209 322.937 394.518 321.765 393.365 321.563C391.261 321.195 388.127 320.756 386.456 321.05C383.792 321.52 378.838 323.309 378.838 323.309C379.383 326.399 388.632 378.854 388.632 378.854C388.632 378.854 396.171 379.757 395.92 374.991C395.668 370.226 395.584 367.059 395.584 367.059L402.541 339.213C402.677 338.667 402.336 338.115 401.785 337.994L397.467 337.044C397.467 337.044 394.691 333.081 394.215 330.381C393.925 328.738 394.465 325.98 394.931 324.074Z" fill="#E4E4E4"/>
<path fill-rule="evenodd" clip-rule="evenodd" d="M594.348 112.69L559.638 131.7L572.456 145.458L597.677 122.365C610.963 118.704 617.039 116.025 615.905 114.329C614.948 112.9 613.406 112.949 611.985 112.995C610.878 113.031 609.845 113.064 609.22 112.394C607.794 110.863 610.515 105.51 613.315 100.542C616.114 95.5727 613.121 96.0053 611.409 96.7199C605.807 100.512 600.12 105.836 594.348 112.69ZM629.247 139.364L614 147.74L614.868 163.04C614.868 163.04 624.743 155.913 633.238 153.544C644.071 150.524 648.453 148.218 653.746 141.473C656.579 137.865 658.982 130.61 656.286 128.248C655.252 127.341 651.399 129.482 647.468 131.667C644.472 133.332 641.43 135.022 639.556 135.408C637.034 135.927 637.329 132.657 637.565 130.045C637.734 128.17 637.873 126.633 636.918 127.077C632.455 127.154 629.247 139.364 629.247 139.364Z" fill="#997659"/>
<path fill-rule="evenodd" clip-rule="evenodd" d="M542.734 127.465C554.892 127.337 571.104 124.769 588.402 113.789L595.196 128.939C583.264 140.78 566.486 150.51 551.816 150.098C540.255 149.773 534.347 135.789 542.734 127.465Z" fill="#2026A2"/>
<path fill-rule="evenodd" clip-rule="evenodd" d="M509.945 231.259C498.387 229.752 487.766 228.367 481.473 229.606C474.411 206.673 480.275 192.234 485.688 178.905C488.95 170.871 492.049 163.241 492.056 154.397C492.075 128.642 512.754 89 515.797 89H516.67H540.783H543.544C544.784 104.937 550.079 122.193 555.407 139.56C556.652 143.615 557.898 147.677 559.095 151.729C579.26 156.307 624.036 140.373 624.036 140.373C624.036 140.373 635.34 163.759 634.487 173.717C608.424 187.331 586.087 193.401 567.683 193.802C568.268 204.721 566.939 215.112 562.474 224.606C556.491 237.327 531.576 234.079 509.945 231.259Z" fill="#1F28CF"/>
<path fill-rule="evenodd" clip-rule="evenodd" d="M325.935 82.2443C332.411 86.1475 338.774 88.0333 341.76 87.2635C349.25 85.333 349.938 57.9351 344.143 47.1339C338.349 36.3328 308.558 31.625 307.057 53.0255C306.536 60.4529 309.654 67.0814 314.262 72.4901L306 111H330L325.935 82.2443Z" fill="#B28B67"/>
<path fill-rule="evenodd" clip-rule="evenodd" d="M330.464 34.6853C327.301 34.1665 318.784 33.8099 317.213 33.8101C316.21 33.8101 315.122 34.0394 314.527 33.1178C314.041 32.3631 314.219 31.0867 314.074 30.2109C313.905 29.1935 313.665 28.1892 313.423 27.1874C312.733 24.3369 311.69 21.625 310.231 19.0788C307.493 14.3019 303.481 10.5601 298.417 8.38278C292.824 5.97866 286.496 5.42817 280.48 5.91581C274.043 6.43752 268.216 8.56259 262.138 10.5624C256.346 12.4681 250.28 13.2182 244.222 12.2876C238.118 11.35 233.507 8.04203 228.359 4.90232C223.089 1.68801 217.066 -0.414264 210.835 0.0689985C205.02 0.520259 199.659 2.92161 194.85 6.12947C190.351 9.13081 186.638 12.7418 184.542 17.824C182.287 23.2909 182.289 29.2918 185.997 34.1233C191.372 41.1265 201.35 42.9376 209.651 42.7575C214.453 42.6537 219.168 41.7772 223.701 40.1828C229.747 38.0564 234.971 34.4523 240.627 31.528C243.281 30.1558 246.025 29.0288 248.901 28.217C251.691 27.4289 254.44 27.0675 256.966 28.7533C259.639 30.5367 262.034 32.2885 265.092 33.4049C268.026 34.476 271.133 35.075 274.258 35.0509C280.339 35.0039 286.333 33.1093 292.239 31.8402C297.054 30.8056 302.207 29.7743 307.117 30.769C309.166 31.1841 312.159 32.041 312.899 34.1702C300.444 36.4274 295.553 51.8302 299.064 63.1372C300.959 69.24 312.35 76.3742 316.779 73.1658C319.585 71.1333 317.881 68.4648 316.779 66.7033C314.668 63.3299 313.945 58.9967 317.852 56.648C321.222 54.6224 324.765 59.4327 324.832 59.4274C325.758 59.3544 333.76 54.8285 339.274 48.2241C344.713 48.5466 345.539 44.96 344.24 42.0269C342.941 39.0938 334.834 35.4024 330.464 34.6853Z" fill="#191847"/>
<path fill-rule="evenodd" clip-rule="evenodd" d="M286.644 194C288.447 218.61 404.607 291.063 405.284 293.096C405.736 294.452 369.128 378.778 369.128 378.778L379.282 382.724C379.282 382.724 435.433 293.416 432.549 283.9C428.42 270.276 342.422 194.262 342.422 194.262L286.644 194Z" fill="#B28B67"/>
<path fill-rule="evenodd" clip-rule="evenodd" d="M371.8 366.082L388.379 372.117C423.336 332.674 437.039 300.131 434.54 283.549C432.042 266.968 344.724 194.06 344.724 194.06L285.455 194.06C287.478 251.052 395.143 293.313 396.583 295.742C398.023 298.171 383.851 321.957 371.8 366.082Z" fill="#2F3676"/>
<path fill-rule="evenodd" clip-rule="evenodd" d="M368.379 376.737C367.533 375.927 366.173 375.94 365.422 376.838C364.051 378.476 362.103 380.971 361.523 382.565C360.597 385.107 359.669 390.292 359.669 390.292C362.618 391.365 412.67 409.582 412.67 409.582C412.67 409.582 417.222 403.504 412.969 401.34C408.716 399.175 405.932 397.665 405.932 397.665L385.295 377.716C384.889 377.325 384.241 377.345 383.861 377.761L380.88 381.026C380.88 381.026 376.059 381.449 373.483 380.511C371.915 379.94 369.796 378.094 368.379 376.737Z" fill="#E4E4E4"/>
<path fill-rule="evenodd" clip-rule="evenodd" d="M300 194L248.254 318.227L197.396 423.25H209.395L340.674 194H300Z" fill="#997659"/>
<path fill-rule="evenodd" clip-rule="evenodd" d="M199.45 417.284C198.378 416.813 197.104 417.29 196.705 418.391C195.977 420.398 195 423.409 195 425.106C195 427.811 195.901 433 195.901 433C199.039 433 252.303 433 252.303 433C252.303 433 254.502 425.732 249.765 425.152C245.028 424.573 241.895 424.106 241.895 424.106L215.68 412.419C215.165 412.189 214.563 412.43 214.348 412.951L212.663 417.039C212.663 417.039 208.278 419.085 205.537 419.085C203.868 419.085 201.246 418.074 199.45 417.284Z" fill="#E4E4E4"/>
<path fill-rule="evenodd" clip-rule="evenodd" d="M201.989 401.433L228.651 406.433C249.266 376.125 335.541 251.852 345 194H285.644C254.055 235.821 221.639 370.624 201.989 401.433Z" fill="#5C63AB"/>
<path fill-rule="evenodd" clip-rule="evenodd" d="M426.235 150.704L390 166.617L401.57 181.439L428.707 160.633C442.262 158.143 448.549 156.004 447.566 154.216C446.738 152.709 445.197 152.624 443.778 152.545C442.672 152.484 441.64 152.427 441.076 151.705C439.789 150.056 442.966 144.961 446.188 140.255C449.41 135.549 446.39 135.719 444.623 136.282C438.711 139.572 432.582 144.379 426.235 150.704ZM264 175.066L243.508 171C229.611 207.63 221.326 227.702 218.652 231.218C216.692 233.796 204.603 240.437 196.42 243.984C193.135 245.407 193.841 248.183 194.804 249.071C200.88 254.672 206.529 252.709 212.678 250.572C214.459 249.953 216.281 249.32 218.167 248.851C223.05 247.639 224.536 250.15 225.94 252.523C227.184 254.624 228.363 256.616 231.779 255.821C231.624 255.151 231.433 254.4 231.227 253.589C229.895 248.349 227.931 240.62 230.845 236.13C232.34 233.826 243.392 213.471 264 175.066Z" fill="#B28B67"/>
<path fill-rule="evenodd" clip-rule="evenodd" d="M319.695 94.3321L328.342 92.8489C347.176 111.119 354.862 155.012 367.414 160.823C379.281 166.316 396.104 161 416.1 153.823L422.223 167.505C404.055 187.161 365.349 203.767 349.66 194.287C324.576 179.13 318.786 124.994 319.695 94.3321Z" fill="#DB2721"/>
<path fill-rule="evenodd" clip-rule="evenodd" d="M282 203C282 203 334.008 203 358.511 203C362.008 203 361.349 197.952 360.843 195.404C355.011 166.004 332.241 134.312 332.241 92.4607L310.172 89C291.917 118.358 285.605 154.505 282 203Z" fill="#DDE3E9"/>
<path fill-rule="evenodd" clip-rule="evenodd" d="M309 89H308.748C259.247 119.504 229.331 166.791 219 230.859L235.037 234C245.661 221.623 258.771 201.368 274.369 173.233C269.583 190.181 266.09 207.563 265 224H333.872C347.205 190.305 317.486 89 317.486 89H312.731H309Z" fill="#FF4133"/>
<path fill-rule="evenodd" clip-rule="evenodd" d="M116.5 34C104.626 34 95 43.6259 95 55.5V76.5C95 87.5658 103.36 96.679 114.109 97.8685C114.111 97.9197 114.114 97.971 114.117 98.0225H143.117C147.701 93.5438 143.209 64.9923 139.762 52.2902C138.212 41.9385 129.283 34 118.5 34H116.5Z" fill="#191847"/>
<path fill-rule="evenodd" clip-rule="evenodd" d="M117.935 82.2443C124.411 86.1475 130.774 88.0333 133.76 87.2635C141.25 85.333 141.938 57.9351 136.143 47.1339C130.349 36.3328 100.558 31.625 99.0568 53.0255C98.5356 60.4529 101.654 67.0814 106.262 72.4901L98 111H122L117.935 82.2443Z" fill="#B28B67"/>
<path fill-rule="evenodd" clip-rule="evenodd" d="M95.8812 53.1504C96.578 52.4614 97.2522 51.7947 97.9211 51.1981L97.8889 50.4207C97.8889 50.4207 105.421 35 117.001 35C128.571 35 132.23 40.3787 135.34 44.9508L135.349 44.9631C133.722 50.5452 128.819 52.8037 123.274 55.3579C120.887 56.4574 118.381 57.6117 115.966 59.1095C115.02 58.341 113.814 57.8804 112.5 57.8804C109.462 57.8804 107 60.3428 107 63.3804C107 66.418 109.462 68.8804 112.5 68.8804C112.584 68.8804 112.667 68.8785 112.75 68.8748C113.856 80.7528 113.413 94.3173 110.117 97.5371H81.1173C80.2848 83.0731 84.0264 78.947 87.8498 74.7307C91.4474 70.7635 95.1173 66.7166 95.1173 53.9028C95.3754 53.6506 95.6298 53.3991 95.8812 53.1505L95.8812 53.1504Z" fill="#191847"/>
<path fill-rule="evenodd" clip-rule="evenodd" d="M59.4078 292.088C59.4078 292.088 95.3919 302.153 121.5 302.153C147.608 302.153 170 286.653 170 286.653C170 286.653 134.786 276.323 112 276.323C89.2136 276.323 59.4078 292.088 59.4078 292.088Z" fill="#1F28CF"/>
<path fill-rule="evenodd" clip-rule="evenodd" d="M142.267 311.824C142.036 311.477 141.84 311.098 141.685 310.689C138.479 302.208 87.1169 210.726 82 194H139.826C143.717 206.717 161.227 286.52 163.691 302.442C171.467 327.557 187.475 408.895 189.519 414.53C191.669 420.458 179.572 426.633 176.349 419.346C171.22 407.75 158.999 375.665 153.557 356.074C148.456 337.708 144.302 321.185 142.267 311.824Z" fill="#997659"/>
<path fill-rule="evenodd" clip-rule="evenodd" d="M94.957 322.994C71.4753 328.928 -14.416 339.658 -20.3102 341.341C-26.3736 343.072 -31.69 330.574 -24.1954 327.867C-12.2702 323.559 20.5891 313.606 40.5118 309.544C56.5364 306.277 71.159 303.611 80.9763 302.05C80.1446 274.473 76.3427 208.294 78.8346 194H130C127.61 207.707 107.41 307.718 103.656 317.729C102.464 321.302 98.9089 322.882 94.957 322.994Z" fill="#B28B67"/>
<path fill-rule="evenodd" clip-rule="evenodd" d="M175.45 417.284C174.378 416.813 173.104 417.29 172.705 418.391C171.977 420.398 171 423.409 171 425.106C171 427.811 171.901 433 171.901 433C175.039 433 228.303 433 228.303 433C228.303 433 230.502 425.732 225.765 425.152C221.028 424.573 217.895 424.106 217.895 424.106L191.68 412.419C191.165 412.189 190.563 412.43 190.348 412.951L188.663 417.039C188.663 417.039 184.278 419.085 181.537 419.085C179.868 419.085 177.246 418.074 175.45 417.284Z" fill="#E4E4E4"/>
<path fill-rule="evenodd" clip-rule="evenodd" d="M79 194C79 194 112.82 184.324 143 194C150 225.938 167.009 238.614 170 287.579C136 304.473 94 275.531 59 292.005C49 268.961 63 213.465 79 194Z" fill="#2B44FF"/>
<path fill-rule="evenodd" clip-rule="evenodd" d="M215.483 148.925L176 154.311L183.084 172L215.121 159.299C228.93 160.661 235.607 160.333 235.153 158.315C234.769 156.613 233.302 156.099 231.95 155.626C230.897 155.257 229.914 154.913 229.568 154.051C228.78 152.083 233.269 148.003 237.693 144.315C242.117 140.627 239.147 139.948 237.281 140.003C230.647 141.558 223.381 144.532 215.483 148.925ZM23.3979 245.908C26.3284 239.963 51.9698 163.45 51.9698 163.45L73.8671 163.532C73.8671 163.532 37.8505 244.583 36.3079 248.406C34.304 253.372 37.7079 260.587 40.0161 265.48C40.3731 266.237 40.704 266.938 40.9846 267.567C37.7819 269 36.2434 267.268 34.6215 265.442C32.7895 263.379 30.8511 261.197 26.2879 263.319C24.5249 264.14 22.8566 265.109 21.2267 266.057C15.5968 269.329 10.4248 272.336 3.389 267.994C2.27357 267.306 1.05124 264.715 4.00454 262.69C11.3623 257.645 21.9653 248.815 23.3979 245.908Z" fill="#997659"/>
<path fill-rule="evenodd" clip-rule="evenodd" d="M111.949 94L129.094 95.1422C133.317 133.343 156.316 157.473 207.811 149.304L214.652 198.499C166.523 204.719 124.313 185.45 115.662 133.278C113.423 119.773 111.655 105.718 111.949 94Z" fill="#AFB9C5"/>
<path fill-rule="evenodd" clip-rule="evenodd" d="M26.4016 236C38.3053 172.664 63.4301 123.664 101.776 89H103.421H103.477L103.491 89.0159L129.468 94.9653C129.468 126.169 136.41 149.485 143.084 171.9C145.966 181.58 148.798 191.093 151 201H80.8436C79.8554 212.351 79.2485 224.018 78.9322 236H26.4016Z" fill="#C5CFD6"/>
<path fill-rule="evenodd" clip-rule="evenodd" d="M80.8436 201C82.8557 177.891 86.4485 156.09 92.3879 135.598C91.0861 157.512 90.7248 184.698 95.1024 201H80.8436Z" fill="black" fill-opacity="0.1"/>
<path fill-rule="evenodd" clip-rule="evenodd" d="M2149.06 155.244C2142.59 159.147 2136.23 161.033 2133.24 160.263C2125.75 158.333 2125.06 130.935 2130.86 120.134C2136.65 109.333 2166.44 104.625 2167.94 126.025C2168.46 133.453 2165.35 140.081 2160.74 145.49L2169 184H2145L2149.06 155.244Z" fill="#B28B67"/>
<path fill-rule="evenodd" clip-rule="evenodd" d="M2120.22 105.16C2120.72 103.413 2122.06 101.918 2123.86 101.474C2124.3 101.366 2124.75 101.323 2125.2 101.341C2125.36 101.347 2125.4 101.394 2125.48 101.281C2125.53 101.198 2125.54 100.993 2125.56 100.895C2125.63 100.59 2125.72 100.288 2125.83 99.994C2126.21 98.9917 2126.84 98.1046 2127.6 97.3573C2129.03 95.9593 2130.96 94.9944 2132.97 94.8199C2134.07 94.7244 2135.16 94.9027 2136.19 95.2597C2136.73 95.4445 2137.25 95.6746 2137.76 95.929C2137.91 96.0056 2138.41 96.3806 2138.56 96.3563C2138.73 96.3295 2139.07 95.9088 2139.21 95.8032C2140.91 94.4979 2143.01 93.9847 2145.13 94.0003C2147.52 94.018 2149.82 94.1375 2151.82 95.5957C2152.24 95.9044 2152.64 96.2425 2153.03 96.5983C2153.23 96.7857 2153.42 96.9801 2153.61 97.1825C2153.72 97.3047 2153.83 97.4296 2153.94 97.5579C2154.12 97.7756 2154.09 97.8471 2154.34 97.6952C2155.3 97.1119 2156.41 96.8391 2157.53 96.9768C2158.2 97.0586 2158.84 97.2584 2159.46 97.5213C2159.67 97.6109 2160.15 97.9679 2160.37 97.9714C2160.6 97.9748 2161.07 97.6438 2161.3 97.5597C2162.53 97.1052 2163.86 96.9931 2165.15 97.2032C2166.49 97.4199 2167.8 97.9525 2168.93 98.6885C2169.48 99.0425 2169.95 99.4348 2170.33 99.9612C2170.5 100.188 2170.64 100.429 2170.83 100.64C2170.94 100.763 2171.16 100.89 2171.22 101.046C2171.18 100.952 2172.67 100.376 2172.82 100.339C2173.57 100.143 2174.33 100.183 2175.07 100.425C2176.45 100.88 2177.64 101.902 2178.62 102.949C2179.12 103.487 2179.56 104.081 2179.94 104.715C2180.12 105.018 2180.28 105.33 2180.43 105.649C2180.5 105.803 2180.55 105.996 2180.64 106.135C2180.77 106.315 2180.85 106.318 2181.07 106.396C2182.21 106.793 2183.24 107.465 2184.02 108.372C2184.82 109.29 2185.34 110.421 2185.55 111.612C2185.57 111.682 2185.57 111.972 2185.61 112.01C2185.67 112.063 2185.9 112.04 2185.98 112.05C2186.28 112.085 2186.58 112.137 2186.87 112.206C2187.41 112.333 2187.93 112.521 2188.43 112.767C2190.36 113.724 2191.75 115.517 2192.42 117.536C2193.13 119.655 2193.12 122.082 2192.27 124.161C2192.14 124.496 2191.97 124.822 2191.78 125.131C2191.66 125.32 2191.63 125.32 2191.7 125.519C2191.79 125.74 2191.94 125.954 2192.04 126.17C2192.37 126.875 2192.6 127.622 2192.75 128.385C2192.99 129.637 2193.11 130.952 2192.87 132.214C2192.76 132.799 2192.57 133.372 2192.28 133.893C2192.13 134.159 2191.96 134.412 2191.76 134.645C2191.66 134.766 2191.55 134.882 2191.44 134.993C2191.37 135.056 2191.29 135.111 2191.24 135.182C2191.1 135.355 2191.07 135.213 2191.14 135.466C2191.24 135.82 2191.46 136.169 2191.59 136.514C2191.73 136.869 2191.86 137.229 2191.97 137.592C2192.2 138.328 2192.4 139.077 2192.52 139.84C2192.76 141.303 2192.71 142.862 2192.02 144.205C2191.73 144.779 2191.3 145.283 2190.79 145.675C2190.54 145.867 2190.26 146.032 2189.98 146.168C2189.83 146.238 2189.64 146.268 2189.57 146.41C2189.5 146.563 2189.61 146.867 2189.63 147.038C2189.85 148.526 2189.95 150.089 2189.51 151.547C2189.1 152.891 2188.21 154.077 2187.04 154.862C2184.78 156.385 2181.74 156.299 2179.36 155.08C2178.74 154.762 2178.16 154.367 2177.65 153.902C2176.33 155.672 2173.63 155.616 2171.7 155.112C2169.31 154.483 2167.39 152.818 2166.28 150.63C2164.77 152.473 2161.59 151.875 2160.54 149.876C2160.28 149.386 2160.13 148.847 2160.05 148.301C2160.01 148.014 2160.04 147.725 2160.01 147.44C2159.97 147.077 2159.73 146.725 2159.59 146.374C2159.32 145.691 2159.15 144.985 2159.14 144.249C2159.14 143.864 2159.19 143.489 2159.22 143.108C2159.26 142.764 2159.16 142.444 2159.11 142.105C2159.72 142.206 2160.47 142.041 2161.05 141.863C2161.62 141.688 2162.15 141.228 2162.55 140.807C2163.48 139.831 2164.05 138.551 2164.44 137.278C2165.29 134.483 2164.94 131.129 2162.13 129.595C2160.82 128.88 2156.9 128.883 2155.34 129.236C2153.7 129.607 2151.84 133.226 2151.75 133.567C2151.69 133.777 2151.72 134.038 2151.52 134.178C2151.1 134.486 2150.4 133.951 2150.08 133.687C2149.54 133.231 2149.16 132.624 2148.82 132.009C2148.09 130.67 2147.51 129.233 2147.09 127.766C2146.77 126.636 2146.57 125.47 2146.15 124.368C2145.74 123.271 2145.08 122.291 2144.06 121.67C2142.95 120.994 2141.68 120.638 2140.46 120.214C2139.26 119.793 2138.07 119.279 2137.14 118.386C2136.93 118.189 2136.73 117.981 2136.57 117.75C2136.43 117.567 2136.31 117.218 2136.11 117.102C2135.8 116.922 2135.35 117.39 2135.08 117.56C2133.76 118.399 2132.66 119.568 2131.77 120.846C2130.88 122.117 2130.16 123.339 2129.57 124.758C2129.13 125.811 2128.86 127.159 2128.09 128.021C2127.75 128.406 2125.2 128.639 2124.37 128.303C2123.54 127.967 2122.62 127.094 2122.34 126.547C2122.06 125.987 2121.99 125.371 2122.11 124.758C2122.18 124.398 2122.33 124.061 2122.41 123.707C2122.48 123.409 2122.54 123.128 2122.68 122.855C2122.96 122.339 2123.42 121.967 2123.99 121.812C2123.4 121.269 2122.91 120.62 2122.58 119.895C2122.23 119.141 2121.93 118.224 2121.84 117.396C2121.78 116.724 2121.88 116.028 2122.25 115.45C2122.64 114.844 2123.32 114.449 2123.91 114.071C2123.01 113.364 2122.23 112.504 2121.6 111.552C2120.36 109.701 2119.6 107.368 2120.22 105.16Z" fill="#191847"/>
<path fill-rule="evenodd" clip-rule="evenodd" d="M2236 309C2244.84 309 2252 316.163 2252 325V417C2252 425.837 2244.84 433 2236 433H2121C2112.16 433 2105 425.837 2105 417V325C2105 316.163 2112.16 309 2121 309H2236ZM2220 337C2222.21 337 2224 338.791 2224 341V401C2224 403.209 2222.21 405 2220 405H2137C2134.79 405 2133 403.209 2133 401V341C2133 338.791 2134.79 337 2137 337H2220Z" fill="#C5CFD6"/>
<path fill-rule="evenodd" clip-rule="evenodd" d="M2059.29 363.58C2055.57 376.608 2046.3 401.302 2033.49 429.66L2021.32 426.107C2031.97 360.853 2040.83 317.651 2045.91 304.502C2049.26 295.814 2074.65 296.832 2071.73 314.313C2070.5 321.643 2065.66 341.273 2059.29 363.58ZM2109.33 317.361C2129.19 321.475 2170.36 336.017 2182.11 340.664C2189.5 343.584 2184.74 353.488 2178.43 352.622C2177.37 352.475 2173.59 352.052 2167.96 351.422C2149.86 349.397 2112.59 345.228 2084.32 341.16C2069.44 339.017 2077.44 311.138 2092.9 314.088C2098.1 315.081 2103.63 316.179 2109.33 317.361Z" fill="#B28B67"/>
<path fill-rule="evenodd" clip-rule="evenodd" d="M2045.13 297.138C2047.16 290.514 2139.44 267 2139.44 267H2147V274.047L2083.41 306.416C2083.5 307.461 2083.45 308.565 2083.24 309.729C2083.7 333.726 2073.43 351.653 2063.26 369.402C2056.61 381.008 2050.01 392.539 2046.47 405.641L2023.11 402.156C2023.79 400.416 2024.87 392.568 2026.34 381.839C2030.05 354.785 2036.27 309.409 2045 297.403C2045.03 297.361 2045.06 297.32 2045.09 297.278C2045.1 297.231 2045.12 297.185 2045.13 297.138Z" fill="#1F28CF"/>
<path fill-rule="evenodd" clip-rule="evenodd" d="M2141.72 325.64C2147.53 324.476 2152.89 323.436 2157.48 322.632C2187.09 317.438 2195.73 301.586 2190.62 267H2136.06C2127.15 269.56 2080.83 288.985 2056.79 299.316C2040.89 306.154 2045.9 330.804 2054.91 337.219C2054.96 337.613 2055.12 337.88 2055.41 338C2089.56 352.154 2118.68 351.098 2137.38 350.42C2145.22 350.136 2151.22 349.918 2155 350.912L2160.92 332.228L2141.72 325.64Z" fill="#2B44FF"/>
<path fill-rule="evenodd" clip-rule="evenodd" d="M2175.87 339.695C2175.92 338.525 2176.91 337.589 2178.07 337.713C2180.19 337.939 2183.33 338.38 2184.85 339.124C2187.28 340.31 2191.55 343.395 2191.55 343.395C2190.18 346.215 2166.83 394.088 2166.83 394.088C2166.83 394.088 2159.33 392.878 2160.89 388.367C2162.44 383.855 2163.4 380.835 2163.4 380.835L2164.38 352.15C2164.4 351.587 2164.88 351.151 2165.45 351.186L2169.86 351.463C2169.86 351.463 2173.62 348.419 2174.82 345.955C2175.55 344.455 2175.8 341.655 2175.87 339.695Z" fill="#E4E4E4"/>
<path fill-rule="evenodd" clip-rule="evenodd" d="M2036.55 423.284C2037.62 422.813 2038.9 423.29 2039.29 424.391C2040.02 426.398 2041 429.409 2041 431.106C2041 433.811 2040.1 439 2040.1 439C2036.96 439 1983.7 439 1983.7 439C1983.7 439 1981.5 431.732 1986.24 431.152C1990.97 430.573 1994.1 430.106 1994.1 430.106L2020.32 418.419C2020.83 418.189 2021.44 418.43 2021.65 418.951L2023.34 423.039C2023.34 423.039 2027.72 425.085 2030.46 425.085C2032.13 425.085 2034.75 424.074 2036.55 423.284Z" fill="#E4E4E4"/>
<path fill-rule="evenodd" clip-rule="evenodd" d="M2060.63 278.758L2088.96 251.123L2098.36 267.403L2068.91 284.77C2061.52 296.405 2057.18 301.432 2055.89 299.852C2054.81 298.519 2055.3 297.058 2055.76 295.713C2056.12 294.665 2056.45 293.687 2056 292.894C2054.95 291.082 2049.04 292.12 2043.46 293.344C2037.89 294.568 2039.18 291.832 2040.37 290.404C2045.63 286.156 2052.39 282.273 2060.63 278.758ZM2227.6 318.908C2224.67 312.963 2214.69 255.02 2214.69 255.02L2193.79 255.102C2193.79 255.102 2213.15 317.583 2214.69 321.406C2216.7 326.372 2213.29 333.587 2210.98 338.48C2210.63 339.237 2210.3 339.938 2210.02 340.567C2213.22 342 2214.76 340.268 2216.38 338.442C2218.21 336.379 2220.15 334.197 2224.71 336.32C2226.48 337.14 2228.14 338.109 2229.77 339.057C2235.4 342.329 2240.58 345.336 2247.61 340.994C2248.73 340.306 2249.95 337.715 2247 335.69C2239.64 330.645 2229.03 321.815 2227.6 318.908Z" fill="#B28B67"/>
<path fill-rule="evenodd" clip-rule="evenodd" d="M2155.3 167.332L2146.66 165.849C2131.77 203.039 2105.78 236.831 2068.68 267.225L2096.71 301.281C2133.81 258.005 2156.67 213.355 2155.3 167.332Z" fill="#191847"/>
<path fill-rule="evenodd" clip-rule="evenodd" d="M2193 276H2116C2116 276 2142.76 210.938 2142.76 165.461L2165.99 162C2184.24 191.358 2189.4 227.505 2193 276Z" fill="#DDE3E9"/>
<path fill-rule="evenodd" clip-rule="evenodd" d="M2228 309C2219.58 213.996 2166.5 162 2166.5 162L2166.48 162.016C2166.47 162.011 2166.47 162.005 2166.47 162H2164.95C2162.23 162.094 2156.66 162.338 2156.66 162.338L2151.05 178.377C2150.16 207.71 2140.65 296.606 2140.65 296.606H2191.05C2190.96 300.682 2190.77 304.815 2190.47 309H2228Z" fill="#2F3676"/>
<path fill-rule="evenodd" clip-rule="evenodd" d="M2191.04 297C2191.44 279.25 2189.87 262.584 2187.24 247.502C2185.87 265.399 2183 286.933 2177 297H2191.04Z" fill="black" fill-opacity="0.1"/>
<path fill-rule="evenodd" clip-rule="evenodd" d="M2179.89 266L2155 254.429V266H2179.89Z" fill="white" fill-opacity="0.2"/>
<path fill-rule="evenodd" clip-rule="evenodd" d="M1733.06 155.244C1726.59 159.147 1720.23 161.033 1717.24 160.263C1709.75 158.333 1709.06 130.935 1714.86 120.134C1720.65 109.333 1750.44 104.625 1751.94 126.025C1752.46 133.453 1749.35 140.081 1744.74 145.49L1753 184H1729L1733.06 155.244Z" fill="#B28B67"/>
<path fill-rule="evenodd" clip-rule="evenodd" d="M1744 121C1730.15 121.099 1720.51 120.516 1715 119C1715.25 114.306 1720.13 109 1733 109C1747.32 109 1755 117.346 1755 127C1755 135.821 1749.32 146.563 1745 147C1743.88 146.755 1742.92 145.406 1741.97 143.547C1743.75 142.681 1745 140.64 1745 138C1745 135.462 1742.76 133 1740 133C1738.99 133 1738.06 133.328 1737.27 133.867C1735.46 130.945 1733.18 128.762 1730 129L1732 123L1744 122V121Z" fill="#191847"/>
<path fill-rule="evenodd" clip-rule="evenodd" d="M1763 441C1720.47 441 1686 408.093 1686 367.5C1686 326.907 1720.47 294 1763 294C1805.53 294 1840 326.907 1840 367.5C1840 408.093 1805.53 441 1763 441Z" fill="#C5CFD6"/>
<path fill-rule="evenodd" clip-rule="evenodd" d="M1643.29 363.58C1639.57 376.608 1630.3 401.302 1617.49 429.66L1605.32 426.107C1615.97 360.853 1624.83 317.651 1629.91 304.502C1633.26 295.814 1658.65 296.832 1655.73 314.313C1654.5 321.643 1649.66 341.273 1643.29 363.58ZM1693.33 317.361C1713.19 321.475 1754.36 336.017 1766.11 340.664C1773.5 343.584 1768.74 353.488 1762.43 352.622C1761.37 352.475 1757.59 352.052 1751.96 351.422C1733.86 349.397 1696.59 345.228 1668.32 341.16C1653.44 339.017 1661.44 311.138 1676.9 314.088C1682.1 315.081 1687.63 316.179 1693.33 317.361Z" fill="#B28B67"/>
<path fill-rule="evenodd" clip-rule="evenodd" d="M1629.13 297.138C1631.16 290.514 1723.44 267 1723.44 267H1731V274.047L1667.41 306.416C1667.5 307.461 1667.45 308.565 1667.24 309.729C1667.7 333.726 1657.43 351.653 1647.26 369.402C1640.61 381.008 1634.01 392.539 1630.47 405.641L1607.11 402.156C1607.79 400.416 1608.87 392.568 1610.34 381.839C1614.05 354.785 1620.27 309.409 1629 297.403C1629.03 297.361 1629.06 297.32 1629.09 297.278C1629.1 297.231 1629.12 297.185 1629.13 297.138Z" fill="#1F28CF"/>
<path fill-rule="evenodd" clip-rule="evenodd" d="M1725.72 325.64C1731.53 324.476 1736.89 323.436 1741.48 322.632C1771.09 317.438 1779.73 301.586 1774.62 267H1720.06C1711.15 269.56 1664.83 288.985 1640.79 299.316C1624.89 306.154 1629.9 330.804 1638.91 337.219C1638.96 337.613 1639.12 337.88 1639.41 338C1673.56 352.154 1702.68 351.098 1721.38 350.42C1729.22 350.136 1735.22 349.918 1739 350.912L1744.92 332.228L1725.72 325.64Z" fill="#2B44FF"/>
<path fill-rule="evenodd" clip-rule="evenodd" d="M1759.87 339.695C1759.92 338.525 1760.91 337.589 1762.07 337.713C1764.19 337.939 1767.33 338.38 1768.85 339.124C1771.28 340.31 1775.55 343.395 1775.55 343.395C1774.18 346.215 1750.83 394.088 1750.83 394.088C1750.83 394.088 1743.33 392.878 1744.89 388.367C1746.44 383.855 1747.4 380.835 1747.4 380.835L1748.38 352.15C1748.4 351.587 1748.88 351.151 1749.45 351.186L1753.86 351.463C1753.86 351.463 1757.62 348.419 1758.82 345.955C1759.55 344.455 1759.8 341.655 1759.87 339.695Z" fill="#E4E4E4"/>
<path fill-rule="evenodd" clip-rule="evenodd" d="M1620.55 423.284C1621.62 422.813 1622.9 423.29 1623.29 424.391C1624.02 426.398 1625 429.409 1625 431.106C1625 433.811 1624.1 439 1624.1 439C1620.96 439 1567.7 439 1567.7 439C1567.7 439 1565.5 431.732 1570.24 431.152C1574.97 430.573 1578.1 430.106 1578.1 430.106L1604.32 418.419C1604.83 418.189 1605.44 418.43 1605.65 418.951L1607.34 423.039C1607.34 423.039 1611.72 425.085 1614.46 425.085C1616.13 425.085 1618.75 424.074 1620.55 423.284Z" fill="#E4E4E4"/>
<path fill-rule="evenodd" clip-rule="evenodd" d="M1842.97 300.201C1839.05 294.855 1815.46 237.375 1815.46 237.375L1797.85 240.564C1797.85 240.564 1828.51 301.405 1830.69 304.902C1833.53 309.445 1831.43 317.142 1830.01 322.361C1829.79 323.169 1829.58 323.917 1829.41 324.585C1832.82 325.44 1834.03 323.467 1835.31 321.387C1836.76 319.037 1838.29 316.551 1843.15 317.85C1845.03 318.351 1846.84 319.017 1848.61 319.667C1854.72 321.912 1860.34 323.974 1866.51 318.477C1867.49 317.606 1868.25 314.841 1864.99 313.36C1856.86 309.669 1844.89 302.815 1842.97 300.201ZM1639.21 270.555L1671.11 247.131L1678.16 264.562L1646.57 277.661C1637.64 288.155 1632.65 292.53 1631.59 290.785C1630.7 289.314 1631.39 287.937 1632.04 286.669C1632.54 285.68 1633 284.758 1632.66 283.909C1631.87 281.969 1625.87 282.174 1620.19 282.611C1614.5 283.048 1616.16 280.518 1617.53 279.269C1623.33 275.794 1630.56 272.89 1639.21 270.555Z" fill="#B28B67"/>
<path fill-rule="evenodd" clip-rule="evenodd" d="M1728.74 164.042L1739.43 168.428C1739.32 171.221 1739.33 175.195 1739.34 179.747C1739.38 194.036 1739.44 214.027 1735.75 221.122C1722.96 245.701 1696.7 258.505 1667.45 272.765C1663.53 274.676 1659.55 276.614 1655.55 278.61L1647.5 262.182C1648.44 261.521 1649.36 260.857 1650.28 260.188C1649.01 259.746 1647.96 258.745 1647.5 257.377C1646.7 255.022 1647.97 252.469 1650.32 251.676C1655.11 250.063 1659.58 249.383 1663.68 249.678C1693.65 224.423 1713.83 194.858 1728.74 164.042Z" fill="#69A1AC"/>
<path fill-rule="evenodd" clip-rule="evenodd" d="M1777 275.91C1777 275.91 1729.84 281.09 1702.76 275.91C1700.53 275.482 1700.63 265.84 1701.66 263.207C1717.81 222.202 1728.44 192.184 1728.44 163.703C1732.89 166.025 1744 164.399 1744 164.399C1763.91 193.75 1773.07 227.427 1777 275.91Z" fill="#191847"/>
<path fill-rule="evenodd" clip-rule="evenodd" d="M1836.81 276.406C1809.02 196.98 1752.02 162 1752.02 162H1750.47H1746.62H1740.65C1741.94 179.036 1735.89 203.826 1728.87 232.584C1717.64 278.577 1703.93 334.719 1713.81 385.518C1725.96 388.231 1740.23 386.379 1755.69 384.374C1777.99 381.479 1802.75 378.267 1827.12 388C1826.18 367.65 1814.3 345.124 1802.47 322.699C1794.97 308.484 1787.5 294.31 1782.84 280.758C1783.91 279.753 1784.47 278.247 1784.19 276.696L1783.67 273.741C1783.32 271.739 1781.69 270.281 1779.77 270.053C1779.44 268.553 1779.15 267.063 1778.91 265.583C1777.69 258.025 1778.47 250.555 1779.24 243.169L1779.24 243.169C1779.66 239.114 1780.08 235.084 1780.17 231.079C1793.56 243.01 1809.77 263.813 1823.45 299.871L1842.34 294.313C1841.62 291.63 1840.86 288.991 1840.07 286.396C1842.26 285.191 1844.83 279.47 1842.99 278.516C1841.05 277.508 1838.98 276.807 1836.81 276.406Z" fill="#89C5CC"/>
<path fill-rule="evenodd" clip-rule="evenodd" d="M1747.89 163L1753.05 178.865L1742.66 190.759L1752.05 200.106L1729.34 239L1757.12 200.183L1747.89 190.759L1757.12 180.248L1747.89 163Z" fill="black" fill-opacity="0.1"/>
<path fill-rule="evenodd" clip-rule="evenodd" d="M1736 254C1733.79 254 1732 252.209 1732 250C1732 247.791 1733.79 246 1736 246C1738.21 246 1740 247.791 1740 250C1740 252.209 1738.21 254 1736 254ZM1731 277C1728.79 277 1727 275.209 1727 273C1727 270.791 1728.79 269 1731 269C1733.21 269 1735 270.791 1735 273C1735 275.209 1733.21 277 1731 277ZM1726 296C1726 298.209 1727.79 300 1730 300C1732.21 300 1734 298.209 1734 296C1734 293.791 1732.21 292 1730 292C1727.79 292 1726 293.791 1726 296Z" fill="black" fill-opacity="0.4"/>
<path fill-rule="evenodd" clip-rule="evenodd" d="M1941.06 155.244C1934.59 159.147 1928.23 161.033 1925.24 160.263C1917.75 158.333 1917.06 130.935 1922.86 120.134C1928.65 109.333 1958.44 104.625 1959.94 126.025C1960.46 133.453 1957.35 140.081 1952.74 145.49L1961 184H1937L1941.06 155.244Z" fill="#B28B67"/>
<path fill-rule="evenodd" clip-rule="evenodd" d="M1928.26 113.011C1928.81 112.683 1929.96 111.991 1930.55 111.74C1930.69 111.68 1931.65 110.991 1931.68 111C1932.41 111.247 1934.52 112.157 1934.71 112.944C1934.73 113.003 1934.76 113.059 1934.79 113.108C1935.09 113.654 1935.36 114.212 1935.63 114.778C1936.2 116.019 1936.7 117.317 1937.17 118.604C1938.1 121.112 1938.9 123.677 1939.64 126.249C1940.39 128.866 1941.03 131.515 1941.75 134.143C1942.78 137.925 1944.09 141.615 1945.11 145.396C1945.77 147.81 1946.13 150.252 1945.96 152.737C1945.96 152.767 1945.96 152.796 1945.95 152.827C1945.95 152.839 1945.95 152.851 1945.95 152.864C1945.92 153.246 1945.88 153.629 1945.82 154.013C1945.77 154.341 1945.73 154.67 1945.67 155C1944.74 153.14 1944.03 151.09 1943.27 149.144C1943.2 148.954 1943.13 148.762 1943.06 148.569C1942.82 148.175 1942.57 147.783 1942.32 147.393C1940.73 144.932 1939.14 142.48 1937.62 139.974C1934.89 135.468 1932.18 130.866 1928.94 126.728C1927.98 125.506 1927 124.303 1926.06 123.071C1925.52 122.37 1925 121.657 1924.49 120.931C1924.13 120.413 1922.55 118.604 1923.12 117.518C1923.41 116.962 1926.84 113.863 1928.26 113.011Z" fill="#2C2C2C"/>
<path fill-rule="evenodd" clip-rule="evenodd" d="M1930.37 111.831C1929.84 112.011 1930.1 110.898 1930.62 110.507C1933.02 108.693 1942.19 108.035 1950.17 109.692C1955.51 110.802 1961.73 113.564 1966 117.115C1969.85 120.317 1972.5 125.449 1973.86 130.408C1975.29 135.614 1975.51 141.042 1974.71 146.381C1974.54 147.554 1974.16 148.672 1973.95 149.82C1973.72 151.112 1973.6 152.357 1973.17 153.615C1972.92 154.385 1972.48 155.139 1972.26 155.914C1972.01 156.797 1972.16 157.615 1972.34 158.513C1972.64 159.978 1973.01 161.44 1973.54 162.839C1974.33 164.94 1975.29 166.907 1975.89 169.087C1976.69 171.988 1980.03 181.427 1977.59 184H1931.07C1932.24 180.805 1935.76 177.044 1936.47 173.624C1936.89 171.609 1937.09 167.209 1937.13 167.049C1938.18 159.822 1940.22 156.372 1941.51 155.119C1942.79 153.867 1944.5 153.482 1944.58 152.395C1944.95 147.902 1943.16 143.597 1941.85 139.404C1940.29 134.407 1939.15 129.285 1937.54 124.304C1936.82 122.099 1933.15 110.898 1930.37 111.831Z" fill="#8991DC"/>
<path fill-rule="evenodd" clip-rule="evenodd" d="M1948.44 133.142C1948.82 125.537 1948.44 122.566 1946.68 117H1947.77C1949.48 119.209 1950.91 125.965 1949.3 133.142H1948.44ZM1969.64 132.784L1969.64 132.784L1969.64 132.783C1969.82 132.322 1970.02 131.849 1970.22 131.364L1970.91 131.695C1968.74 139.631 1966.1 145.757 1957.03 150.893L1956.33 150.399C1964.9 144.373 1966.74 139.876 1969.64 132.784ZM1956.79 123.292C1956.7 123.981 1956.61 124.651 1956.52 125.306V125.306C1955.22 135.359 1954.4 141.735 1947.13 153.298L1947.96 153.549C1955.92 142.826 1957.18 134.074 1957.55 123.354L1956.79 123.292ZM1964.63 155.88L1965.33 156.736C1961.8 157.474 1959.41 160.068 1956.66 163.042C1953.75 166.188 1950.45 169.759 1945 172.007L1943.99 171.394C1949.93 168.303 1952.7 165.23 1955.12 162.548C1957.62 159.771 1959.74 157.411 1964.63 155.88Z" fill="black" fill-opacity="0.2"/>
<path fill-rule="evenodd" clip-rule="evenodd" d="M2004.38 309H1927.12L1917 433H2032L2004.38 309Z" fill="#C5CFD6"/>
<path fill-rule="evenodd" clip-rule="evenodd" d="M2004.38 309H1980.62L1966.4 433H2032L2004.38 309Z" fill="black" fill-opacity="0.1"/>
<path fill-rule="evenodd" clip-rule="evenodd" d="M1884.68 333.567C1893.36 351.978 1906.92 396.672 1906.92 396.672L1895.41 401.934C1895.41 401.934 1866.19 354.952 1848.33 322.836C1849.16 330.066 1850.01 338.206 1850.79 346.763C1852.65 367.033 1850.79 410.827 1849.79 423.477C1849.16 431.428 1838.36 429.762 1837.35 423.457C1837.18 422.389 1836.48 418.639 1835.45 413.045C1830.35 385.613 1817.02 313.818 1817 296.238C1816.99 289.165 1830.81 282.81 1839.05 287.756C1844.7 281.719 1855.41 278.24 1861.56 288.212C1865.47 294.552 1874.77 312.55 1884.68 333.567Z" fill="#B28B67"/>
<path fill-rule="evenodd" clip-rule="evenodd" d="M1906.1 380.125L1866.57 286.487C1857.1 271.255 1830.55 289.587 1833.78 298.422C1841.11 318.479 1878.4 383.414 1880.58 389.39L1906.1 380.125Z" fill="#1F28CF"/>
<path fill-rule="evenodd" clip-rule="evenodd" d="M1905.34 391.185C1906.03 390.241 1907.37 390.017 1908.27 390.771C1909.9 392.146 1912.25 394.264 1913.1 395.734C1914.45 398.076 1916.27 403.021 1916.27 403.021C1913.55 404.59 1867.42 431.222 1867.42 431.222C1867.42 431.222 1861.88 426.027 1865.7 423.156C1869.51 420.286 1871.99 418.315 1871.99 418.315L1888.85 395.087C1889.18 394.631 1889.82 394.538 1890.27 394.882L1893.77 397.579C1893.77 397.579 1898.59 397.158 1900.97 395.788C1902.41 394.953 1904.18 392.767 1905.34 391.185Z" fill="#E4E4E4"/>
<path fill-rule="evenodd" clip-rule="evenodd" d="M1849.55 417.284C1850.62 416.813 1851.9 417.29 1852.29 418.391C1853.02 420.398 1854 423.409 1854 425.106C1854 427.811 1853.1 433 1853.1 433C1849.96 433 1796.7 433 1796.7 433C1796.7 433 1794.5 425.732 1799.24 425.152C1803.97 424.573 1807.1 424.106 1807.1 424.106L1833.32 412.419C1833.83 412.189 1834.44 412.43 1834.65 412.951L1836.34 417.039C1836.34 417.039 1840.72 419.085 1843.46 419.085C1845.13 419.085 1847.75 418.074 1849.55 417.284Z" fill="#E4E4E4"/>
<path fill-rule="evenodd" clip-rule="evenodd" d="M1814.23 303.433C1814.23 330 1826.85 391.97 1826.85 397.82L1854 397.841C1854 397.841 1848.04 314.898 1849.77 314.004C1851.51 313.111 1920.82 320.925 1941.61 320.925C1971.59 320.925 1983.99 302.02 1985 267H1925.61C1913.52 268.294 1850.45 281.015 1827.03 285.388C1817 287.261 1814.23 296.115 1814.23 303.433Z" fill="#2B44FF"/>
<path fill-rule="evenodd" clip-rule="evenodd" d="M2031.6 311.908C2028.67 305.963 2014.03 229.45 2014.03 229.45L1992.13 229.532C1992.13 229.532 2017.15 310.583 2018.69 314.406C2020.7 319.372 2017.29 326.587 2014.98 331.48C2014.63 332.237 2014.3 332.938 2014.02 333.567C2017.22 335 2018.76 333.268 2020.38 331.442C2022.21 329.379 2024.15 327.197 2028.71 329.32C2030.48 330.14 2032.14 331.109 2033.77 332.057C2039.4 335.329 2044.58 338.336 2051.61 333.994C2052.73 333.306 2053.95 330.715 2051 328.69C2043.64 323.645 2033.03 314.815 2031.6 311.908ZM1847.18 282.095L1875.51 254.46L1884.92 270.74L1855.46 288.108C1848.07 299.743 1843.73 304.77 1842.44 303.19C1841.36 301.857 1841.86 300.396 1842.31 299.051C1842.67 298.003 1843.01 297.025 1842.55 296.231C1841.5 294.42 1835.59 295.457 1830.02 296.682C1824.45 297.906 1825.73 295.17 1826.92 293.742C1832.18 289.493 1838.94 285.611 1847.18 282.095Z" fill="#B28B67"/>
<path fill-rule="evenodd" clip-rule="evenodd" d="M1947.3 167.332L1938.66 165.849C1925.04 214.001 1855.05 246.823 1850.75 264.823C1849.18 271.425 1853.93 274.762 1851.47 276.772L1862.71 285C1864.61 282.779 1868.68 286.841 1877.16 284C1885.64 281.159 1947.3 224.348 1947.3 167.332Z" fill="#DB2721"/>
<path fill-rule="evenodd" clip-rule="evenodd" d="M1962.68 157.279C1964.89 157.125 1966.8 158.787 1966.95 160.99L1967.36 166.848C1983.64 179.371 2023.97 216.793 2034.48 286.457C2035.58 293.775 2033.59 297.694 2031.99 300.826C2030.9 302.969 2030 304.742 2030.4 306.983L2015.69 311.043C2015.69 309.389 2013.84 308.13 2011.45 306.507C2007.97 304.146 2003.36 301.013 2001.65 294.768C2000.03 288.848 1997.66 281.454 1994.83 273.229C1994.57 284.122 1992.5 294.14 1988 302.438C1976.77 323.139 1911.89 300.437 1905.11 279.318C1901.5 268.049 1906.63 258.588 1913.42 246.076C1922.03 230.192 1933.32 209.392 1932.76 173.734L1932.04 163.432C1931.88 161.228 1933.55 159.317 1935.75 159.162L1962.68 157.279Z" fill="#FF4133"/>
</svg>
