<?xml version="1.0" standalone="no"?>
<svg xmlns:xlink="http://www.w3.org/1999/xlink" id="wave" style="transform:rotate(0deg); transition: 0.3s" viewBox="0 0 1440 250" version="1.1" xmlns="http://www.w3.org/2000/svg"><defs><linearGradient id="sw-gradient-0" x1="0" x2="0" y1="1" y2="0"><stop stop-color="rgba(255, 255, 255, 1)" offset="0%"/><stop stop-color="rgba(255, 0, 0, 0.21)" offset="100%"/></linearGradient></defs><path style="transform:translate(0, 0px); opacity:1" fill="url(#sw-gradient-0)" d="M0,0L10,33.3C20,67,40,133,60,137.5C80,142,100,83,120,58.3C140,33,160,42,180,58.3C200,75,220,100,240,95.8C260,92,280,58,300,41.7C320,25,340,25,360,45.8C380,67,400,108,420,120.8C440,133,460,117,480,125C500,133,520,167,540,158.3C560,150,580,100,600,79.2C620,58,640,67,660,62.5C680,58,700,42,720,62.5C740,83,760,142,780,158.3C800,175,820,150,840,116.7C860,83,880,42,900,20.8C920,0,940,0,960,33.3C980,67,1000,133,1020,145.8C1040,158,1060,117,1080,87.5C1100,58,1120,42,1140,41.7C1160,42,1180,58,1200,70.8C1220,83,1240,92,1260,79.2C1280,67,1300,33,1320,45.8C1340,58,1360,117,1380,133.3C1400,150,1420,125,1430,112.5L1440,100L1440,250L1430,250C1420,250,1400,250,1380,250C1360,250,1340,250,1320,250C1300,250,1280,250,1260,250C1240,250,1220,250,1200,250C1180,250,1160,250,1140,250C1120,250,1100,250,1080,250C1060,250,1040,250,1020,250C1000,250,980,250,960,250C940,250,920,250,900,250C880,250,860,250,840,250C820,250,800,250,780,250C760,250,740,250,720,250C700,250,680,250,660,250C640,250,620,250,600,250C580,250,560,250,540,250C520,250,500,250,480,250C460,250,440,250,420,250C400,250,380,250,360,250C340,250,320,250,300,250C280,250,260,250,240,250C220,250,200,250,180,250C160,250,140,250,120,250C100,250,80,250,60,250C40,250,20,250,10,250L0,250Z"/><defs><linearGradient id="sw-gradient-1" x1="0" x2="0" y1="1" y2="0"><stop stop-color="rgba(255, 0, 0, 0.72)" offset="0%"/><stop stop-color="rgba(255, 85.75, 85.75, 1)" offset="100%"/></linearGradient></defs><path style="transform:translate(0, 50px); opacity:0.9" fill="url(#sw-gradient-1)" d="M0,75L10,91.7C20,108,40,142,60,154.2C80,167,100,158,120,166.7C140,175,160,200,180,195.8C200,192,220,158,240,158.3C260,158,280,192,300,204.2C320,217,340,208,360,187.5C380,167,400,133,420,100C440,67,460,33,480,45.8C500,58,520,117,540,133.3C560,150,580,125,600,120.8C620,117,640,133,660,150C680,167,700,183,720,195.8C740,208,760,217,780,195.8C800,175,820,125,840,112.5C860,100,880,125,900,112.5C920,100,940,50,960,50C980,50,1000,100,1020,133.3C1040,167,1060,183,1080,175C1100,167,1120,133,1140,104.2C1160,75,1180,50,1200,50C1220,50,1240,75,1260,91.7C1280,108,1300,117,1320,104.2C1340,92,1360,58,1380,75C1400,92,1420,158,1430,191.7L1440,225L1440,250L1430,250C1420,250,1400,250,1380,250C1360,250,1340,250,1320,250C1300,250,1280,250,1260,250C1240,250,1220,250,1200,250C1180,250,1160,250,1140,250C1120,250,1100,250,1080,250C1060,250,1040,250,1020,250C1000,250,980,250,960,250C940,250,920,250,900,250C880,250,860,250,840,250C820,250,800,250,780,250C760,250,740,250,720,250C700,250,680,250,660,250C640,250,620,250,600,250C580,250,560,250,540,250C520,250,500,250,480,250C460,250,440,250,420,250C400,250,380,250,360,250C340,250,320,250,300,250C280,250,260,250,240,250C220,250,200,250,180,250C160,250,140,250,120,250C100,250,80,250,60,250C40,250,20,250,10,250L0,250Z"/><defs><linearGradient id="sw-gradient-2" x1="0" x2="0" y1="1" y2="0"><stop stop-color="rgba(255, 74, 74, 1)" offset="0%"/><stop stop-color="rgba(149, 1, 1, 1)" offset="100%"/></linearGradient></defs><path style="transform:translate(0, 100px); opacity:0.8" fill="url(#sw-gradient-2)" d="M0,25L10,29.2C20,33,40,42,60,75C80,108,100,167,120,170.8C140,175,160,125,180,120.8C200,117,220,158,240,145.8C260,133,280,67,300,66.7C320,67,340,133,360,141.7C380,150,400,100,420,104.2C440,108,460,167,480,162.5C500,158,520,92,540,83.3C560,75,580,125,600,150C620,175,640,175,660,154.2C680,133,700,92,720,79.2C740,67,760,83,780,83.3C800,83,820,67,840,66.7C860,67,880,83,900,100C920,117,940,133,960,125C980,117,1000,83,1020,83.3C1040,83,1060,117,1080,145.8C1100,175,1120,200,1140,204.2C1160,208,1180,192,1200,162.5C1220,133,1240,92,1260,91.7C1280,92,1300,133,1320,145.8C1340,158,1360,142,1380,141.7C1400,142,1420,158,1430,166.7L1440,175L1440,250L1430,250C1420,250,1400,250,1380,250C1360,250,1340,250,1320,250C1300,250,1280,250,1260,250C1240,250,1220,250,1200,250C1180,250,1160,250,1140,250C1120,250,1100,250,1080,250C1060,250,1040,250,1020,250C1000,250,980,250,960,250C940,250,920,250,900,250C880,250,860,250,840,250C820,250,800,250,780,250C760,250,740,250,720,250C700,250,680,250,660,250C640,250,620,250,600,250C580,250,560,250,540,250C520,250,500,250,480,250C460,250,440,250,420,250C400,250,380,250,360,250C340,250,320,250,300,250C280,250,260,250,240,250C220,250,200,250,180,250C160,250,140,250,120,250C100,250,80,250,60,250C40,250,20,250,10,250L0,250Z"/></svg>