<?xml version="1.0" standalone="no"?>
<svg xmlns:xlink="http://www.w3.org/1999/xlink" id="wave" style="transform:rotate(0deg); transition: 0.3s" viewBox="0 0 1440 490" version="1.1" xmlns="http://www.w3.org/2000/svg"><defs><linearGradient id="sw-gradient-0" x1="0" x2="0" y1="1" y2="0"><stop stop-color="rgba(255, 255, 255, 1)" offset="0%"/><stop stop-color="rgba(255, 0, 0, 0.21)" offset="100%"/></linearGradient></defs><path style="transform:translate(0, 0px); opacity:1" fill="url(#sw-gradient-0)" d="M0,0L10,65.3C20,131,40,261,60,269.5C80,278,100,163,120,114.3C140,65,160,82,180,114.3C200,147,220,196,240,187.8C260,180,280,114,300,81.7C320,49,340,49,360,89.8C380,131,400,212,420,236.8C440,261,460,229,480,245C500,261,520,327,540,310.3C560,294,580,196,600,155.2C620,114,640,131,660,122.5C680,114,700,82,720,122.5C740,163,760,278,780,310.3C800,343,820,294,840,228.7C860,163,880,82,900,40.8C920,0,940,0,960,65.3C980,131,1000,261,1020,285.8C1040,310,1060,229,1080,171.5C1100,114,1120,82,1140,81.7C1160,82,1180,114,1200,138.8C1220,163,1240,180,1260,155.2C1280,131,1300,65,1320,89.8C1340,114,1360,229,1380,261.3C1400,294,1420,245,1430,220.5L1440,196L1440,490L1430,490C1420,490,1400,490,1380,490C1360,490,1340,490,1320,490C1300,490,1280,490,1260,490C1240,490,1220,490,1200,490C1180,490,1160,490,1140,490C1120,490,1100,490,1080,490C1060,490,1040,490,1020,490C1000,490,980,490,960,490C940,490,920,490,900,490C880,490,860,490,840,490C820,490,800,490,780,490C760,490,740,490,720,490C700,490,680,490,660,490C640,490,620,490,600,490C580,490,560,490,540,490C520,490,500,490,480,490C460,490,440,490,420,490C400,490,380,490,360,490C340,490,320,490,300,490C280,490,260,490,240,490C220,490,200,490,180,490C160,490,140,490,120,490C100,490,80,490,60,490C40,490,20,490,10,490L0,490Z"/><defs><linearGradient id="sw-gradient-1" x1="0" x2="0" y1="1" y2="0"><stop stop-color="rgba(255, 0, 0, 0.72)" offset="0%"/><stop stop-color="rgba(255, 85.75, 85.75, 1)" offset="100%"/></linearGradient></defs><path style="transform:translate(0, 50px); opacity:0.9" fill="url(#sw-gradient-1)" d="M0,147L10,179.7C20,212,40,278,60,302.2C80,327,100,310,120,326.7C140,343,160,392,180,383.8C200,376,220,310,240,310.3C260,310,280,376,300,400.2C320,425,340,408,360,367.5C380,327,400,261,420,196C440,131,460,65,480,89.8C500,114,520,229,540,261.3C560,294,580,245,600,236.8C620,229,640,261,660,294C680,327,700,359,720,383.8C740,408,760,425,780,383.8C800,343,820,245,840,220.5C860,196,880,245,900,220.5C920,196,940,98,960,98C980,98,1000,196,1020,261.3C1040,327,1060,359,1080,343C1100,327,1120,261,1140,204.2C1160,147,1180,98,1200,98C1220,98,1240,147,1260,179.7C1280,212,1300,229,1320,204.2C1340,180,1360,114,1380,147C1400,180,1420,310,1430,375.7L1440,441L1440,490L1430,490C1420,490,1400,490,1380,490C1360,490,1340,490,1320,490C1300,490,1280,490,1260,490C1240,490,1220,490,1200,490C1180,490,1160,490,1140,490C1120,490,1100,490,1080,490C1060,490,1040,490,1020,490C1000,490,980,490,960,490C940,490,920,490,900,490C880,490,860,490,840,490C820,490,800,490,780,490C760,490,740,490,720,490C700,490,680,490,660,490C640,490,620,490,600,490C580,490,560,490,540,490C520,490,500,490,480,490C460,490,440,490,420,490C400,490,380,490,360,490C340,490,320,490,300,490C280,490,260,490,240,490C220,490,200,490,180,490C160,490,140,490,120,490C100,490,80,490,60,490C40,490,20,490,10,490L0,490Z"/><defs><linearGradient id="sw-gradient-2" x1="0" x2="0" y1="1" y2="0"><stop stop-color="rgba(255, 74.233, 74.233, 1)" offset="0%"/><stop stop-color="rgba(255, 45.439, 45.439, 1)" offset="100%"/></linearGradient></defs><path style="transform:translate(0, 100px); opacity:0.8" fill="url(#sw-gradient-2)" d="M0,49L10,57.2C20,65,40,82,60,147C80,212,100,327,120,334.8C140,343,160,245,180,236.8C200,229,220,310,240,285.8C260,261,280,131,300,130.7C320,131,340,261,360,277.7C380,294,400,196,420,204.2C440,212,460,327,480,318.5C500,310,520,180,540,163.3C560,147,580,245,600,294C620,343,640,343,660,302.2C680,261,700,180,720,155.2C740,131,760,163,780,163.3C800,163,820,131,840,130.7C860,131,880,163,900,196C920,229,940,261,960,245C980,229,1000,163,1020,163.3C1040,163,1060,229,1080,285.8C1100,343,1120,392,1140,400.2C1160,408,1180,376,1200,318.5C1220,261,1240,180,1260,179.7C1280,180,1300,261,1320,285.8C1340,310,1360,278,1380,277.7C1400,278,1420,310,1430,326.7L1440,343L1440,490L1430,490C1420,490,1400,490,1380,490C1360,490,1340,490,1320,490C1300,490,1280,490,1260,490C1240,490,1220,490,1200,490C1180,490,1160,490,1140,490C1120,490,1100,490,1080,490C1060,490,1040,490,1020,490C1000,490,980,490,960,490C940,490,920,490,900,490C880,490,860,490,840,490C820,490,800,490,780,490C760,490,740,490,720,490C700,490,680,490,660,490C640,490,620,490,600,490C580,490,560,490,540,490C520,490,500,490,480,490C460,490,440,490,420,490C400,490,380,490,360,490C340,490,320,490,300,490C280,490,260,490,240,490C220,490,200,490,180,490C160,490,140,490,120,490C100,490,80,490,60,490C40,490,20,490,10,490L0,490Z"/></svg>