<?xml version="1.0" standalone="no"?>
<svg xmlns:xlink="http://www.w3.org/1999/xlink" id="wave" style="transform:rotate(180deg); transition: 0.3s" viewBox="0 0 1440 490" version="1.1" xmlns="http://www.w3.org/2000/svg"><defs><linearGradient id="sw-gradient-0" x1="0" x2="0" y1="1" y2="0"><stop stop-color="rgba(255, 255, 255, 1)" offset="0%"/><stop stop-color="rgba(200.677, 200.677, 200.677, 1)" offset="100%"/></linearGradient></defs><path style="transform:translate(0, 0px); opacity:1" fill="url(#sw-gradient-0)" d="M0,294L10,277.7C20,261,40,229,60,212.3C80,196,100,196,120,171.5C140,147,160,98,180,73.5C200,49,220,49,240,114.3C260,180,280,310,300,318.5C320,327,340,212,360,163.3C380,114,400,131,420,171.5C440,212,460,278,480,285.8C500,294,520,245,540,228.7C560,212,580,229,600,253.2C620,278,640,310,660,277.7C680,245,700,147,720,89.8C740,33,760,16,780,40.8C800,65,820,131,840,204.2C860,278,880,359,900,375.7C920,392,940,343,960,302.2C980,261,1000,229,1020,228.7C1040,229,1060,261,1080,269.5C1100,278,1120,261,1140,228.7C1160,196,1180,147,1200,138.8C1220,131,1240,163,1260,171.5C1280,180,1300,163,1320,187.8C1340,212,1360,278,1380,310.3C1400,343,1420,343,1430,343L1440,343L1440,490L1430,490C1420,490,1400,490,1380,490C1360,490,1340,490,1320,490C1300,490,1280,490,1260,490C1240,490,1220,490,1200,490C1180,490,1160,490,1140,490C1120,490,1100,490,1080,490C1060,490,1040,490,1020,490C1000,490,980,490,960,490C940,490,920,490,900,490C880,490,860,490,840,490C820,490,800,490,780,490C760,490,740,490,720,490C700,490,680,490,660,490C640,490,620,490,600,490C580,490,560,490,540,490C520,490,500,490,480,490C460,490,440,490,420,490C400,490,380,490,360,490C340,490,320,490,300,490C280,490,260,490,240,490C220,490,200,490,180,490C160,490,140,490,120,490C100,490,80,490,60,490C40,490,20,490,10,490L0,490Z"/><defs><linearGradient id="sw-gradient-1" x1="0" x2="0" y1="1" y2="0"><stop stop-color="rgba(255, 235.475, 235.475, 0)" offset="0%"/><stop stop-color="rgba(255, 255, 255, 1)" offset="100%"/></linearGradient></defs><path style="transform:translate(0, 50px); opacity:0.9" fill="url(#sw-gradient-1)" d="M0,0L10,57.2C20,114,40,229,60,277.7C80,327,100,310,120,253.2C140,196,160,98,180,49C200,0,220,0,240,16.3C260,33,280,65,300,138.8C320,212,340,327,360,318.5C380,310,400,180,420,147C440,114,460,180,480,179.7C500,180,520,114,540,130.7C560,147,580,245,600,236.8C620,229,640,114,660,106.2C680,98,700,196,720,220.5C740,245,760,196,780,147C800,98,820,49,840,89.8C860,131,880,261,900,269.5C920,278,940,163,960,106.2C980,49,1000,49,1020,40.8C1040,33,1060,16,1080,8.2C1100,0,1120,0,1140,16.3C1160,33,1180,65,1200,89.8C1220,114,1240,131,1260,171.5C1280,212,1300,278,1320,294C1340,310,1360,278,1380,236.8C1400,196,1420,147,1430,122.5L1440,98L1440,490L1430,490C1420,490,1400,490,1380,490C1360,490,1340,490,1320,490C1300,490,1280,490,1260,490C1240,490,1220,490,1200,490C1180,490,1160,490,1140,490C1120,490,1100,490,1080,490C1060,490,1040,490,1020,490C1000,490,980,490,960,490C940,490,920,490,900,490C880,490,860,490,840,490C820,490,800,490,780,490C760,490,740,490,720,490C700,490,680,490,660,490C640,490,620,490,600,490C580,490,560,490,540,490C520,490,500,490,480,490C460,490,440,490,420,490C400,490,380,490,360,490C340,490,320,490,300,490C280,490,260,490,240,490C220,490,200,490,180,490C160,490,140,490,120,490C100,490,80,490,60,490C40,490,20,490,10,490L0,490Z"/></svg>