<svg width="1378" height="753" viewBox="0 0 1378 753" fill="none" xmlns="http://www.w3.org/2000/svg">
  <path d="M676.517 637.194H1316.52V661.995H660.927L676.517 637.194Z" fill="#BB001F"/>
  <path d="M4.76416 636.899H464.59L456.509 661.701H4.76416V636.899Z" fill="#BB001F"/>
  <path d="M957.632 396.723C932.156 396.723 906.728 401.871 882.471 409.401L889.786 456.052C891.612 467.699 903.429 474.346 914.687 471.181C930.222 466.813 958.595 458.182 970.445 471.701C935.972 468.683 894.408 475.102 875.247 507.662L875.164 507.798L875.084 507.938C869.622 517.734 867.183 529.186 867.183 541.595C867.183 554.21 869.251 565.663 874.024 575.597C883.62 595.566 902.444 607.024 923.409 611.667H923.453L923.478 611.681C934.206 614.001 945.815 615.108 958.32 615.108C977.451 615.108 993.969 613.94 1008.1 611.446C1021.29 609.343 1031.69 607.468 1039.47 605.752L1049.81 603.46V484.849C1049.81 462.097 1045.44 438.029 1029.28 421.065C1011.11 401.419 983.052 396.723 957.632 396.723ZM375.273 397.418C344.63 397.418 314.216 402.577 284.824 411.164V611.28H362.57V468.769C386.978 466.194 390.066 477.59 390.066 500.872V594.629C390.066 603.825 397.454 611.28 406.568 611.28H467.797V494.594C467.797 470.465 463.783 444.89 448.286 425.645C430.823 403.959 401.691 397.418 375.273 397.418ZM579.395 397.418C551.397 397.418 522.372 405.84 501.912 425.895L501.842 425.968L501.773 426.039C482.354 445.633 473.768 473.255 473.768 500.528C473.768 529.663 481.189 554.364 497.12 572.378L497.164 572.421L497.19 572.449C518.733 596.435 553.589 602.774 584.143 597.272C568.265 621.84 514.043 598.522 495.18 590.927L484.076 644.808C482.119 654.304 487.462 663.852 496.686 666.582C517.205 672.657 538.185 676.734 559.731 676.734C593.223 676.734 620.257 668.927 638.526 651.103C656.963 633.567 665.373 607.167 665.373 575.017V411.266C637.629 402.893 608.453 397.418 579.395 397.418ZM679.972 401.598V516.881C679.972 530.315 681.322 542.871 684.141 554.505C687.063 566.567 692.123 577.47 699.345 586.719L699.414 586.799L699.469 586.873C706.98 596.2 717.051 603.323 728.861 608.198L728.905 608.226L728.96 608.241C741.402 613.262 755.896 615.459 772.486 615.459C788.284 615.459 803.456 614.244 817.989 611.808C832.121 609.666 843.865 607.287 853.44 604.49L862.931 601.713V426.501C862.931 412.749 851.882 401.6 838.253 401.6H785.199V544.398C781.827 544.566 778.57 544.678 775.595 544.678C766.334 544.678 764.09 542.894 762.411 540.042C760.254 536.375 757.704 526.162 757.704 510.62V426.5C757.704 412.748 746.655 401.6 733.026 401.6L679.972 401.598ZM587.623 466.201V528.265C578.596 531.493 565.077 533.235 558.329 524.809C555.218 520.923 552.548 513.239 552.548 500.523C552.548 488.738 555.211 480.411 559.953 473.978C566.527 465.057 577.653 465.259 587.623 466.201ZM974.143 532.722V548.217C966.019 548.58 944.573 552.755 944.573 540.204C944.573 527.937 967.074 532.097 974.143 532.722Z" fill="url(#paint0_linear_0_1)"/>
  <path d="M209.28 401.597C199.058 401.597 190.771 409.959 190.771 420.273V538.066H85.7628V368.364C85.7628 354.612 74.7138 343.464 61.0841 343.464H5.62129C5.62131 428.988 5.56459 514.512 5.56645 600.036C5.56647 606.918 8.48057 611.476 14.1855 611.476C19.8904 611.476 199.207 611.28 268.503 611.28V401.597H209.28Z" fill="url(#paint1_linear_0_1)"/>
  <path d="M231.056 332.572C208.673 300.382 172.558 315.898 172.558 345.885C172.558 372.282 209.36 390.846 225.679 408.044C228.274 410.777 233.717 410.697 236.337 407.989C251.895 391.904 290.097 371.947 290.097 345.885C290.097 315.898 247.51 301.178 231.056 332.572Z" fill="url(#paint2_linear_0_1)"/>
  <path d="M17.7476 742.264C19.3627 742.264 20.6841 742.142 21.7118 741.897C22.7885 741.603 23.645 741.236 24.2812 740.796C24.9175 740.306 25.3579 739.744 25.6026 739.107C25.8473 738.471 25.9697 737.762 25.9697 736.978C25.9697 735.314 25.1866 733.944 23.6205 732.867C22.0544 731.742 19.3627 730.543 15.5453 729.27C13.8813 728.683 12.2173 728.022 10.5533 727.288C8.88934 726.505 7.39664 725.551 6.07524 724.425C4.75384 723.251 3.67714 721.856 2.84514 720.241C2.01315 718.577 1.59715 716.57 1.59715 714.221C1.59715 711.872 2.03762 709.767 2.91855 707.908C3.79949 705.999 5.04748 704.384 6.66253 703.062C8.27758 701.741 10.2352 700.738 12.5354 700.053C14.8357 699.318 17.4295 698.951 20.317 698.951C23.7429 698.951 26.7038 699.318 29.1998 700.053C31.6958 700.787 33.7513 701.594 35.3663 702.475L32.0628 711.505C30.6435 710.771 29.053 710.134 27.2911 709.596C25.5782 709.009 23.4982 708.715 21.0511 708.715C18.3105 708.715 16.3283 709.107 15.1048 709.89C13.9302 710.624 13.343 711.774 13.343 713.34C13.343 714.27 13.5632 715.053 14.0037 715.689C14.4441 716.325 15.0559 716.913 15.8389 717.451C16.6709 717.94 17.6008 718.405 18.6286 718.846C19.7053 719.237 20.8798 719.653 22.1523 720.094C24.7951 721.073 27.0953 722.051 29.053 723.03C31.0106 723.96 32.6256 725.061 33.8981 726.334C35.2195 727.606 36.1983 729.099 36.8346 730.812C37.4708 732.525 37.7889 734.605 37.7889 737.052C37.7889 741.799 36.1249 745.494 32.7969 748.137C29.469 750.731 24.4525 752.028 17.7476 752.028C15.4964 752.028 13.4653 751.881 11.6545 751.587C9.84368 751.343 8.22864 751.024 6.80935 750.633C5.43901 750.241 4.23996 749.825 3.2122 749.385C2.23338 748.944 1.40139 748.528 0.716217 748.137L3.94631 739.034C5.46348 739.866 7.32323 740.625 9.52557 741.31C11.7768 741.946 14.5175 742.264 17.7476 742.264ZM44.7653 751V700.126H79.1217V709.743H56.2174V719.727H76.5523V729.123H56.2174V741.383H80.8102V751H44.7653ZM102.352 699.539C109.987 699.539 115.836 700.909 119.898 703.65C123.96 706.341 125.991 710.55 125.991 716.276C125.991 719.849 125.159 722.761 123.495 725.012C121.88 727.215 119.531 728.952 116.447 730.225C117.475 731.497 118.552 732.965 119.677 734.629C120.803 736.244 121.904 737.957 122.981 739.768C124.107 741.53 125.183 743.39 126.211 745.347C127.239 747.256 128.193 749.14 129.074 751H116.227C115.297 749.336 114.343 747.648 113.364 745.935C112.434 744.222 111.455 742.558 110.428 740.943C109.449 739.328 108.47 737.81 107.491 736.391C106.512 734.923 105.534 733.602 104.555 732.427H98.9021V751H87.4499V700.86C89.9459 700.371 92.5153 700.028 95.1581 699.832C97.8498 699.637 100.248 699.539 102.352 699.539ZM103.013 709.302C102.181 709.302 101.423 709.327 100.737 709.376C100.101 709.425 99.4894 709.474 98.9021 709.523V723.324H102.132C106.439 723.324 109.522 722.786 111.382 721.709C113.242 720.632 114.172 718.797 114.172 716.203C114.172 713.707 113.217 711.945 111.309 710.917C109.449 709.841 106.684 709.302 103.013 709.302ZM148.627 751C146.62 746.742 144.638 742.313 142.68 737.713C140.723 733.112 138.863 728.561 137.101 724.058C135.339 719.556 133.7 715.249 132.183 711.138C130.714 707.027 129.442 703.356 128.365 700.126H140.992C141.971 703.062 143.023 706.244 144.149 709.669C145.323 713.046 146.498 716.423 147.672 719.8C148.896 723.177 150.07 726.407 151.196 729.49C152.322 732.574 153.374 735.241 154.353 737.492C155.283 735.241 156.31 732.574 157.436 729.49C158.611 726.407 159.785 723.177 160.96 719.8C162.183 716.423 163.358 713.046 164.484 709.669C165.658 706.244 166.735 703.062 167.714 700.126H179.9C178.774 703.356 177.477 707.027 176.009 711.138C174.541 715.249 172.926 719.556 171.164 724.058C169.402 728.561 167.542 733.112 165.585 737.713C163.627 742.313 161.645 746.742 159.638 751H148.627ZM184.648 700.126H196.1V751H184.648V700.126ZM240.177 751C236.898 745.176 233.35 739.425 229.532 733.748C225.715 728.071 221.653 722.712 217.346 717.671V751H206.041V700.126H215.364C216.979 701.741 218.765 703.723 220.723 706.072C222.681 708.421 224.663 710.942 226.669 713.634C228.725 716.276 230.756 719.042 232.762 721.929C234.769 724.768 236.653 727.508 238.415 730.151V700.126H249.794V751H240.177ZM284.507 708.935C279.172 708.935 275.306 710.428 272.908 713.413C270.559 716.35 269.384 720.388 269.384 725.526C269.384 728.022 269.678 730.298 270.265 732.354C270.852 734.36 271.733 736.098 272.908 737.566C274.083 739.034 275.551 740.184 277.313 741.016C279.075 741.799 281.13 742.191 283.479 742.191C284.752 742.191 285.828 742.166 286.709 742.117C287.639 742.068 288.447 741.97 289.132 741.824V724.131H300.584V749.312C299.214 749.85 297.011 750.413 293.977 751C290.943 751.636 287.199 751.954 282.745 751.954C278.928 751.954 275.453 751.367 272.321 750.192C269.237 749.018 266.595 747.305 264.392 745.054C262.19 742.802 260.477 740.037 259.253 736.758C258.079 733.479 257.492 729.735 257.492 725.526C257.492 721.268 258.152 717.5 259.474 714.221C260.795 710.942 262.606 708.177 264.906 705.925C267.206 703.625 269.898 701.888 272.981 700.713C276.114 699.539 279.442 698.951 282.965 698.951C285.363 698.951 287.517 699.123 289.426 699.465C291.383 699.759 293.047 700.126 294.417 700.566C295.837 700.958 296.987 701.374 297.868 701.814C298.798 702.255 299.458 702.598 299.85 702.842L296.546 712.019C294.98 711.187 293.169 710.477 291.114 709.89C289.107 709.253 286.905 708.935 284.507 708.935ZM359.268 751C358.729 749.238 358.118 747.427 357.432 745.568C356.796 743.708 356.16 741.848 355.524 739.988H335.703C335.066 741.848 334.406 743.708 333.721 745.568C333.084 747.427 332.497 749.238 331.959 751H320.066C321.975 745.519 323.786 740.453 325.499 735.804C327.211 731.154 328.875 726.774 330.491 722.663C332.155 718.552 333.77 714.661 335.336 710.991C336.951 707.271 338.615 703.65 340.328 700.126H351.266C352.93 703.65 354.569 707.271 356.184 710.991C357.8 714.661 359.415 718.552 361.03 722.663C362.694 726.774 364.382 731.154 366.095 735.804C367.808 740.453 369.619 745.519 371.527 751H359.268ZM345.54 711.652C345.295 712.386 344.928 713.389 344.439 714.661C343.949 715.934 343.386 717.402 342.75 719.066C342.114 720.73 341.404 722.565 340.621 724.572C339.887 726.579 339.129 728.683 338.346 730.885H352.808C352.024 728.683 351.266 726.579 350.532 724.572C349.798 722.565 349.088 720.73 348.403 719.066C347.767 717.402 347.204 715.934 346.714 714.661C346.225 713.389 345.833 712.386 345.54 711.652ZM410.267 741.163V751H376.277V700.126H387.73V741.163H410.267ZM449.797 741.163V751H415.808V700.126H427.26V741.163H449.797ZM505.128 741.163V751H471.138V700.126H482.591V741.163H505.128ZM547.026 751C546.487 749.238 545.876 747.427 545.19 745.568C544.554 743.708 543.918 741.848 543.282 739.988H523.461C522.824 741.848 522.164 743.708 521.479 745.568C520.842 747.427 520.255 749.238 519.717 751H507.824C509.733 745.519 511.544 740.453 513.256 735.804C514.969 731.154 516.633 726.774 518.248 722.663C519.912 718.552 521.527 714.661 523.094 710.991C524.709 707.271 526.373 703.65 528.086 700.126H539.024C540.688 703.65 542.327 707.271 543.942 710.991C545.557 714.661 547.172 718.552 548.788 722.663C550.451 726.774 552.14 731.154 553.853 735.804C555.566 740.453 557.377 745.519 559.285 751H547.026ZM533.298 711.652C533.053 712.386 532.686 713.389 532.197 714.661C531.707 715.934 531.144 717.402 530.508 719.066C529.872 720.73 529.162 722.565 528.379 724.572C527.645 726.579 526.886 728.683 526.103 730.885H540.565C539.782 728.683 539.024 726.579 538.29 724.572C537.556 722.565 536.846 720.73 536.161 719.066C535.525 717.402 534.962 715.934 534.472 714.661C533.983 713.389 533.591 712.386 533.298 711.652ZM598.171 751C594.892 745.176 591.344 739.425 587.527 733.748C583.709 728.071 579.647 722.712 575.341 717.671V751H564.035V700.126H573.358C574.974 701.741 576.76 703.723 578.718 706.072C580.675 708.421 582.657 710.942 584.664 713.634C586.719 716.276 588.75 719.042 590.757 721.929C592.764 724.768 594.648 727.508 596.41 730.151V700.126H607.788V751H598.171ZM642.502 708.935C637.167 708.935 633.301 710.428 630.903 713.413C628.553 716.35 627.379 720.388 627.379 725.526C627.379 728.022 627.673 730.298 628.26 732.354C628.847 734.36 629.728 736.098 630.903 737.566C632.077 739.034 633.545 740.184 635.307 741.016C637.069 741.799 639.125 742.191 641.474 742.191C642.746 742.191 643.823 742.166 644.704 742.117C645.634 742.068 646.441 741.97 647.126 741.824V724.131H658.579V749.312C657.208 749.85 655.006 750.413 651.972 751C648.937 751.636 645.193 751.954 640.74 751.954C636.922 751.954 633.448 751.367 630.315 750.192C627.232 749.018 624.589 747.305 622.387 745.054C620.185 742.802 618.472 740.037 617.248 736.758C616.074 733.479 615.486 729.735 615.486 725.526C615.486 721.268 616.147 717.5 617.468 714.221C618.79 710.942 620.601 708.177 622.901 705.925C625.201 703.625 627.893 701.888 630.976 700.713C634.108 699.539 637.436 698.951 640.96 698.951C643.358 698.951 645.511 699.123 647.42 699.465C649.378 699.759 651.042 700.126 652.412 700.566C653.831 700.958 654.981 701.374 655.862 701.814C656.792 702.255 657.453 702.598 657.845 702.842L654.541 712.019C652.975 711.187 651.164 710.477 649.109 709.89C647.102 709.253 644.9 708.935 642.502 708.935ZM687.293 752.028C683.721 752.028 680.637 751.538 678.044 750.56C675.45 749.532 673.296 748.137 671.583 746.375C669.919 744.564 668.671 742.435 667.839 739.988C667.056 737.492 666.665 734.752 666.665 731.766V700.126H678.117V730.812C678.117 732.867 678.337 734.629 678.778 736.098C679.267 737.517 679.903 738.691 680.686 739.621C681.518 740.502 682.497 741.138 683.623 741.53C684.797 741.921 686.07 742.117 687.44 742.117C690.23 742.117 692.481 741.261 694.194 739.548C695.956 737.835 696.837 734.923 696.837 730.812V700.126H708.289V731.766C708.289 734.752 707.873 737.492 707.041 739.988C706.209 742.484 704.937 744.638 703.224 746.449C701.511 748.21 699.333 749.581 696.69 750.56C694.047 751.538 690.915 752.028 687.293 752.028ZM750.097 751C749.558 749.238 748.947 747.427 748.261 745.568C747.625 743.708 746.989 741.848 746.353 739.988H726.532C725.895 741.848 725.235 743.708 724.55 745.568C723.913 747.427 723.326 749.238 722.788 751H710.895C712.804 745.519 714.615 740.453 716.327 735.804C718.04 731.154 719.704 726.774 721.319 722.663C722.983 718.552 724.598 714.661 726.165 710.991C727.78 707.271 729.444 703.65 731.157 700.126H742.095C743.759 703.65 745.398 707.271 747.013 710.991C748.628 714.661 750.244 718.552 751.859 722.663C753.523 726.774 755.211 731.154 756.924 735.804C758.637 740.453 760.448 745.519 762.356 751H750.097ZM736.369 711.652C736.124 712.386 735.757 713.389 735.268 714.661C734.778 715.934 734.215 717.402 733.579 719.066C732.943 720.73 732.233 722.565 731.45 724.572C730.716 726.579 729.958 728.683 729.174 730.885H743.636C742.853 728.683 742.095 726.579 741.361 724.572C740.627 722.565 739.917 720.73 739.232 719.066C738.596 717.402 738.033 715.934 737.543 714.661C737.054 713.389 736.662 712.386 736.369 711.652ZM790.055 708.935C784.721 708.935 780.854 710.428 778.456 713.413C776.107 716.35 774.933 720.388 774.933 725.526C774.933 728.022 775.226 730.298 775.814 732.354C776.401 734.36 777.282 736.098 778.456 737.566C779.631 739.034 781.099 740.184 782.861 741.016C784.623 741.799 786.678 742.191 789.028 742.191C790.3 742.191 791.377 742.166 792.258 742.117C793.188 742.068 793.995 741.97 794.68 741.824V724.131H806.132V749.312C804.762 749.85 802.56 750.413 799.525 751C796.491 751.636 792.747 751.954 788.293 751.954C784.476 751.954 781.001 751.367 777.869 750.192C774.786 749.018 772.143 747.305 769.941 745.054C767.738 742.802 766.025 740.037 764.802 736.758C763.627 733.479 763.04 729.735 763.04 725.526C763.04 721.268 763.701 717.5 765.022 714.221C766.344 710.942 768.154 708.177 770.455 705.925C772.755 703.625 775.447 701.888 778.53 700.713C781.662 699.539 784.99 698.951 788.514 698.951C790.912 698.951 793.065 699.123 794.974 699.465C796.932 699.759 798.596 700.126 799.966 700.566C801.385 700.958 802.535 701.374 803.416 701.814C804.346 702.255 805.007 702.598 805.398 702.842L802.095 712.019C800.529 711.187 798.718 710.477 796.662 709.89C794.656 709.253 792.453 708.935 790.055 708.935ZM814.953 751V700.126H849.309V709.743H826.405V719.727H846.74V729.123H826.405V741.383H850.998V751H814.953ZM871.512 742.264C873.127 742.264 874.448 742.142 875.476 741.897C876.553 741.603 877.409 741.236 878.046 740.796C878.682 740.306 879.122 739.744 879.367 739.107C879.612 738.471 879.734 737.762 879.734 736.978C879.734 735.314 878.951 733.944 877.385 732.867C875.819 731.742 873.127 730.543 869.31 729.27C867.646 728.683 865.982 728.022 864.318 727.288C862.654 726.505 861.161 725.551 859.84 724.425C858.518 723.251 857.442 721.856 856.61 720.241C855.778 718.577 855.362 716.57 855.362 714.221C855.362 711.872 855.802 709.767 856.683 707.908C857.564 705.999 858.812 704.384 860.427 703.062C862.042 701.741 864 700.738 866.3 700.053C868.6 699.318 871.194 698.951 874.081 698.951C877.507 698.951 880.468 699.318 882.964 700.053C885.46 700.787 887.516 701.594 889.131 702.475L885.827 711.505C884.408 710.771 882.817 710.134 881.055 709.596C879.343 709.009 877.263 708.715 874.816 708.715C872.075 708.715 870.093 709.107 868.869 709.89C867.695 710.624 867.107 711.774 867.107 713.34C867.107 714.27 867.328 715.053 867.768 715.689C868.209 716.325 868.82 716.913 869.603 717.451C870.435 717.94 871.365 718.405 872.393 718.846C873.47 719.237 874.644 719.653 875.917 720.094C878.56 721.073 880.86 722.051 882.817 723.03C884.775 723.96 886.39 725.061 887.663 726.334C888.984 727.606 889.963 729.099 890.599 730.812C891.235 732.525 891.553 734.605 891.553 737.052C891.553 741.799 889.889 745.494 886.561 748.137C883.233 750.731 878.217 752.028 871.512 752.028C869.261 752.028 867.23 751.881 865.419 751.587C863.608 751.343 861.993 751.024 860.574 750.633C859.203 750.241 858.004 749.825 856.977 749.385C855.998 748.944 855.166 748.528 854.481 748.137L857.711 739.034C859.228 739.866 861.088 740.625 863.29 741.31C865.541 741.946 868.282 742.264 871.512 742.264ZM948.467 705.558C949.054 707.565 949.69 709.841 950.375 712.386C951.109 714.882 951.868 717.476 952.651 720.167C953.483 722.859 954.315 725.551 955.147 728.243C955.979 730.934 956.786 733.43 957.57 735.73C958.206 733.234 958.842 730.518 959.478 727.582C960.163 724.645 960.8 721.611 961.387 718.479C961.974 715.347 962.537 712.239 963.075 709.156C963.663 706.023 964.201 703.014 964.69 700.126H976.583C974.87 708.642 972.888 717.28 970.637 726.04C968.434 734.801 966.036 743.121 963.442 751H952.945C951.232 746.302 949.568 741.383 947.953 736.244C946.338 731.057 944.747 725.869 943.181 720.681C941.615 725.869 940.049 731.057 938.483 736.244C936.916 741.383 935.277 746.302 933.564 751H923.066C920.472 743.121 918.05 734.801 915.799 726.04C913.596 717.28 911.639 708.642 909.926 700.126H922.332C922.822 703.014 923.36 706.023 923.947 709.156C924.534 712.239 925.146 715.347 925.782 718.479C926.419 721.611 927.055 724.645 927.691 727.582C928.376 730.518 929.061 733.234 929.747 735.73C930.628 733.332 931.484 730.787 932.316 728.096C933.148 725.404 933.956 722.712 934.739 720.02C935.522 717.329 936.231 714.735 936.868 712.239C937.553 709.743 938.164 707.516 938.703 705.558H948.467ZM991.007 725.526C991.007 728.022 991.3 730.274 991.888 732.28C992.524 734.287 993.405 736.024 994.53 737.492C995.705 738.912 997.124 740.013 998.788 740.796C1000.45 741.579 1002.36 741.97 1004.51 741.97C1006.62 741.97 1008.5 741.579 1010.17 740.796C1011.88 740.013 1013.3 738.912 1014.42 737.492C1015.6 736.024 1016.48 734.287 1017.07 732.28C1017.7 730.274 1018.02 728.022 1018.02 725.526C1018.02 723.03 1017.7 720.779 1017.07 718.772C1016.48 716.717 1015.6 714.98 1014.42 713.56C1013.3 712.092 1011.88 710.966 1010.17 710.183C1008.5 709.4 1006.62 709.009 1004.51 709.009C1002.36 709.009 1000.45 709.425 998.788 710.257C997.124 711.04 995.705 712.165 994.53 713.634C993.405 715.053 992.524 716.79 991.888 718.846C991.3 720.852 991.007 723.079 991.007 725.526ZM1029.84 725.526C1029.84 729.882 1029.18 733.724 1027.86 737.052C1026.59 740.331 1024.82 743.096 1022.57 745.347C1020.32 747.55 1017.63 749.214 1014.5 750.339C1011.41 751.465 1008.09 752.028 1004.51 752.028C1001.04 752.028 997.76 751.465 994.677 750.339C991.594 749.214 988.902 747.55 986.602 745.347C984.302 743.096 982.491 740.331 981.17 737.052C979.848 733.724 979.187 729.882 979.187 725.526C979.187 721.171 979.873 717.353 981.243 714.074C982.613 710.746 984.449 707.957 986.749 705.705C989.098 703.454 991.79 701.766 994.824 700.64C997.907 699.514 1001.14 698.951 1004.51 698.951C1007.99 698.951 1011.27 699.514 1014.35 700.64C1017.43 701.766 1020.13 703.454 1022.43 705.705C1024.73 707.957 1026.54 710.746 1027.86 714.074C1029.18 717.353 1029.84 721.171 1029.84 725.526ZM1052.45 699.539C1060.09 699.539 1065.94 700.909 1070 703.65C1074.06 706.341 1076.09 710.55 1076.09 716.276C1076.09 719.849 1075.26 722.761 1073.6 725.012C1071.98 727.215 1069.63 728.952 1066.55 730.225C1067.58 731.497 1068.65 732.965 1069.78 734.629C1070.91 736.244 1072.01 737.957 1073.08 739.768C1074.21 741.53 1075.29 743.39 1076.31 745.347C1077.34 747.256 1078.3 749.14 1079.18 751H1066.33C1065.4 749.336 1064.45 747.648 1063.47 745.935C1062.54 744.222 1061.56 742.558 1060.53 740.943C1059.55 739.328 1058.57 737.81 1057.59 736.391C1056.61 734.923 1055.64 733.602 1054.66 732.427H1049V751H1037.55V700.86C1040.05 700.371 1042.62 700.028 1045.26 699.832C1047.95 699.637 1050.35 699.539 1052.45 699.539ZM1053.12 709.302C1052.28 709.302 1051.52 709.327 1050.84 709.376C1050.2 709.425 1049.59 709.474 1049 709.523V723.324H1052.23C1056.54 723.324 1059.62 722.786 1061.48 721.709C1063.34 720.632 1064.27 718.797 1064.27 716.203C1064.27 713.707 1063.32 711.945 1061.41 710.917C1059.55 709.841 1056.79 709.302 1053.12 709.302ZM1118.67 741.163V751H1084.68V700.126H1096.13V741.163H1118.67ZM1135.66 741.677C1136.2 741.726 1136.81 741.775 1137.5 741.824C1138.23 741.824 1139.09 741.824 1140.07 741.824C1145.79 741.824 1150.03 740.38 1152.77 737.492C1155.56 734.605 1156.95 730.616 1156.95 725.526C1156.95 720.192 1155.63 716.154 1152.99 713.413C1150.35 710.673 1146.16 709.302 1140.44 709.302C1139.65 709.302 1138.85 709.327 1138.01 709.376C1137.18 709.376 1136.4 709.425 1135.66 709.523V741.677ZM1168.77 725.526C1168.77 729.931 1168.09 733.773 1166.72 737.052C1165.35 740.331 1163.39 743.047 1160.84 745.201C1158.35 747.354 1155.29 748.969 1151.67 750.046C1148.05 751.122 1143.98 751.661 1139.48 751.661C1137.43 751.661 1135.03 751.563 1132.29 751.367C1129.55 751.22 1126.85 750.878 1124.21 750.339V700.787C1126.85 700.297 1129.6 699.979 1132.43 699.832C1135.32 699.637 1137.79 699.539 1139.85 699.539C1144.2 699.539 1148.14 700.028 1151.67 701.007C1155.24 701.986 1158.3 703.527 1160.84 705.632C1163.39 707.736 1165.35 710.428 1166.72 713.707C1168.09 716.986 1168.77 720.926 1168.77 725.526ZM1209.92 705.558C1210.51 707.565 1211.15 709.841 1211.83 712.386C1212.57 714.882 1213.32 717.476 1214.11 720.167C1214.94 722.859 1215.77 725.551 1216.6 728.243C1217.43 730.934 1218.24 733.43 1219.03 735.73C1219.66 733.234 1220.3 730.518 1220.93 727.582C1221.62 724.645 1222.26 721.611 1222.84 718.479C1223.43 715.347 1223.99 712.239 1224.53 709.156C1225.12 706.023 1225.66 703.014 1226.15 700.126H1238.04C1236.33 708.642 1234.34 717.28 1232.09 726.04C1229.89 734.801 1227.49 743.121 1224.9 751H1214.4C1212.69 746.302 1211.02 741.383 1209.41 736.244C1207.79 731.057 1206.2 725.869 1204.64 720.681C1203.07 725.869 1201.5 731.057 1199.94 736.244C1198.37 741.383 1196.73 746.302 1195.02 751H1184.52C1181.93 743.121 1179.51 734.801 1177.25 726.04C1175.05 717.28 1173.09 708.642 1171.38 700.126H1183.79C1184.28 703.014 1184.82 706.023 1185.4 709.156C1185.99 712.239 1186.6 715.347 1187.24 718.479C1187.87 721.611 1188.51 724.645 1189.15 727.582C1189.83 730.518 1190.52 733.234 1191.2 735.73C1192.08 733.332 1192.94 730.787 1193.77 728.096C1194.6 725.404 1195.41 722.712 1196.19 720.02C1196.98 717.329 1197.69 714.735 1198.32 712.239C1199.01 709.743 1199.62 707.516 1200.16 705.558H1209.92ZM1243.56 700.126H1255.01V751H1243.56V700.126ZM1276.41 741.677C1276.95 741.726 1277.56 741.775 1278.24 741.824C1278.98 741.824 1279.83 741.824 1280.81 741.824C1286.54 741.824 1290.77 740.38 1293.51 737.492C1296.3 734.605 1297.7 730.616 1297.7 725.526C1297.7 720.192 1296.38 716.154 1293.73 713.413C1291.09 710.673 1286.91 709.302 1281.18 709.302C1280.4 709.302 1279.59 709.327 1278.76 709.376C1277.92 709.376 1277.14 709.425 1276.41 709.523V741.677ZM1309.52 725.526C1309.52 729.931 1308.83 733.773 1307.46 737.052C1306.09 740.331 1304.13 743.047 1301.59 745.201C1299.09 747.354 1296.03 748.969 1292.41 750.046C1288.79 751.122 1284.73 751.661 1280.22 751.661C1278.17 751.661 1275.77 751.563 1273.03 751.367C1270.29 751.22 1267.6 750.878 1264.96 750.339V700.787C1267.6 700.297 1270.34 699.979 1273.18 699.832C1276.06 699.637 1278.54 699.539 1280.59 699.539C1284.95 699.539 1288.89 700.028 1292.41 701.007C1295.98 701.986 1299.04 703.527 1301.59 705.632C1304.13 707.736 1306.09 710.428 1307.46 713.707C1308.83 716.986 1309.52 720.926 1309.52 725.526ZM1317.25 751V700.126H1351.6V709.743H1328.7V719.727H1349.03V729.123H1328.7V741.383H1353.29V751H1317.25Z" fill="url(#paint3_linear_0_1)"/>
  <path fill-rule="evenodd" clip-rule="evenodd" d="M1025.08 0.00132773C1052.85 -0.376688 1072.73 80.0506 1084.89 129.191C1085.15 130.269 1085.42 131.333 1085.67 132.38C1089.41 131.455 1093.74 131.305 1098.69 132.188C1083.7 118.486 1105.4 93.7283 1120.95 108.276C1120.95 63.5784 1197.9 49.4394 1214.87 97.8757C1245.08 70.0602 1303.47 114.245 1279.27 151.42C1280.27 151.035 1281.26 150.727 1282.21 150.491C1303.36 102.051 1337.3 25.2262 1365.36 30.4899C1397.29 35.9405 1365.43 181.404 1302.81 190.308C1301.73 190.569 1300.45 190.537 1299.04 190.259C1303.26 198.325 1304.69 209.664 1296.05 219.874C1307.72 235.374 1303.99 247.581 1299.62 261.936C1297.56 268.678 1295.36 275.893 1294.54 284.146C1301.81 286.707 1309.16 302.407 1306.81 311.498C1328.13 324.567 1324.29 345.144 1312.61 357.084C1321.69 375.67 1315.21 388.317 1302.93 398.763C1302.91 411.185 1301.25 416.693 1291.96 420.904L1304.32 604.416C1304.32 604.416 1231.85 614.831 1185.12 614.831C1138.4 614.831 1065.92 604.416 1065.92 604.416L1076.6 420.924C1071.58 417.212 1063.38 405.638 1070.64 389.035C1063.46 388.383 1054.82 374.405 1059.69 365.856C1050.28 365.202 1028.55 340.106 1054.9 318.258C1050.1 302.751 1059.51 287.865 1069.04 286.886C1068.76 276.66 1066.54 268.332 1064.53 260.837C1060.3 245.024 1057.06 232.922 1075.27 214.544C1061.37 205.286 1063.82 179.469 1080.6 177.384C1078.57 177.033 1076.75 176.271 1075.18 175.186C1070.91 178.489 1065.77 178.768 1060.1 173.213C1003.72 120.76 994 -0.0829647 1025.08 0.00132773Z" fill="url(#paint4_linear_0_1)"/>
  <path d="M1055.55 83.1155L1077.23 135.399C1066.66 140.262 1056.08 156.745 1064.25 171.336C1048.29 165.829 1010.3 90.7326 1014.93 46.8414C1018.82 20.4749 1040.64 35.617 1055.55 83.1155Z" fill="#FFE8CC"/>
  <path d="M1322.99 110.21L1300.24 155.321C1312.21 157.279 1319.32 179.15 1311.88 186.984C1327.43 178.928 1365.06 149.058 1364.07 81.193C1362.89 62.1265 1351.75 50.1025 1322.99 110.21Z" fill="#FFE8CC"/>
  <path d="M1155.92 319.279C1112.57 325.173 1122.37 382.156 1147.95 389.865C1156.42 454.544 1241.9 444.4 1233.07 378.293C1262.09 352.828 1238.28 307.837 1208.25 312.405L1155.92 319.279Z" fill="#FFE8CC"/>
  <path d="M1215.72 385.417L1167.92 401.331C1167.92 401.331 1181.64 415.498 1198.96 409.091C1216.29 402.684 1215.72 385.417 1215.72 385.417Z" fill="#9B000F"/>
  <path d="M1184.51 329.449C1177.57 320.302 1161.87 324.365 1162.52 336.359C1163.18 348.354 1181.8 350.73 1185.66 355.646C1188.57 350.006 1207.31 347.015 1206.8 334.031C1206.29 321.047 1188.22 319.222 1184.51 329.449Z" fill="#9B000F"/>
  <path d="M1216.44 467.574C1216.72 493.824 1175.3 494.421 1174.18 473.222C1167.13 485.046 1141.9 476.267 1146.2 463.715C1135.35 466.596 1118.24 470.342 1110.13 442.867C1104.93 453.121 1116.96 476.591 1135.29 473.948C1136.32 480.609 1153.17 491.678 1170.64 494.087C1211.11 508.984 1280.67 460.905 1269.54 438.294C1270.23 445.542 1245.25 482.52 1216.44 467.574Z" fill="#FFE8CC"/>
  <path d="M1136.11 523.594C1118.81 540.372 1106.68 518.871 1111.21 510.113C1094.97 520.288 1110.81 547.465 1131.48 534.062C1136.15 549.724 1162.62 553.711 1166.15 537.372C1166.15 537.372 1137.95 546.044 1136.11 523.594Z" fill="#FFE8CC"/>
  <path d="M1205.26 577.481C1205.14 577.207 1205.12 576.996 1205.21 576.869C1205.23 577.075 1205.24 577.279 1205.26 577.481C1207.11 581.517 1231.6 599.171 1241.71 560.891C1273.22 590.751 1283.81 550.252 1285.09 541.326C1297.91 569.468 1271.91 591.885 1245.28 579.176C1234.82 595.194 1207.52 601.162 1205.26 577.481Z" fill="#FFE8CC"/>
  <path d="M1277.86 187.76L1277.82 187.795C1277.68 187.794 1277.54 187.794 1277.4 187.794C1254.25 187.794 1233.54 198.315 1219.71 214.877C1195.24 209.39 1178.77 209.714 1153.62 215.597C1139.79 198.622 1118.82 187.796 1095.34 187.796C1088.91 187.796 1082.66 188.608 1076.7 190.136C1057.17 190.971 1038.24 192.996 1023.48 194.575C1021.54 194.783 1019.67 194.982 1017.89 195.171C1008.44 196.166 1004.35 205.233 1011.34 211.72C1018.87 218.696 1026.31 226.546 1025.38 235.415C1021.86 244.211 1019.92 253.822 1019.92 263.89C1019.92 305.916 1053.68 339.985 1095.34 339.985C1136.99 339.985 1170.75 305.916 1170.75 263.89C1170.75 255.985 1169.56 248.36 1167.34 241.192C1178.85 237.217 1193.27 237.102 1205.58 240.6C1203.24 247.94 1201.98 255.766 1201.98 263.889C1201.98 305.915 1235.75 339.983 1277.4 339.983C1319.05 339.983 1352.82 305.915 1352.82 263.889C1352.82 252.883 1350.5 242.423 1346.33 232.978C1345.69 224.292 1353.01 216.589 1360.41 209.73C1367.4 203.243 1363.32 194.177 1353.87 193.181C1352.08 192.993 1350.22 192.794 1348.28 192.586L1348.27 192.586C1329.2 190.545 1303.16 187.76 1277.86 187.76Z" fill="#1A1A1A"/>
  <ellipse cx="1276.6" cy="265.521" rx="70.071" ry="70.7008" fill="url(#paint5_radial_0_1)"/>
  <ellipse cx="1095.97" cy="265.521" rx="70.071" ry="70.7008" fill="url(#paint6_radial_0_1)"/>
  <path fill-rule="evenodd" clip-rule="evenodd" d="M1109.51 194.883C1108.43 190.982 1099.06 168.258 1095.65 165.585C1058.65 150.651 1043.27 218.821 1093.47 222.581C1093.75 245.816 1143.29 259.602 1155.24 228.391C1182.88 234.325 1211.19 203.42 1191.76 178.821C1181.27 165.55 1147.85 168.351 1153.34 189.905C1152.71 191.955 1150.08 206.252 1150.12 208.286C1134.68 205.685 1123.85 194.603 1109.51 194.883Z" fill="#FFE8CC"/>
  <path d="M1108.13 198.006C1085.67 216.622 1063.55 175.846 1095.4 165.727L1152.97 184.672C1186.44 176.229 1179.68 228.638 1149.78 214.023C1144.84 233.633 1099.83 225.849 1108.13 198.006Z" fill="#8C0008"/>
  <defs>
  <linearGradient id="paint0_linear_0_1" x1="527.69" y1="314.707" x2="527.69" y2="676.734" gradientUnits="userSpaceOnUse">
  <stop stop-color="#7C0000"/>
  <stop offset="0.690625" stop-color="#9F0000"/>
  <stop offset="1" stop-color="#C40000"/>
  </linearGradient>
  <linearGradient id="paint1_linear_0_1" x1="527.69" y1="314.707" x2="527.69" y2="676.734" gradientUnits="userSpaceOnUse">
  <stop stop-color="#7C0000"/>
  <stop offset="0.690625" stop-color="#9F0000"/>
  <stop offset="1" stop-color="#C40000"/>
  </linearGradient>
  <linearGradient id="paint2_linear_0_1" x1="527.69" y1="314.707" x2="527.69" y2="676.734" gradientUnits="userSpaceOnUse">
  <stop stop-color="#7C0000"/>
  <stop offset="0.690625" stop-color="#9F0000"/>
  <stop offset="1" stop-color="#C40000"/>
  </linearGradient>
  <linearGradient id="paint3_linear_0_1" x1="678.5" y1="695.263" x2="678.5" y2="751" gradientUnits="userSpaceOnUse">
  <stop stop-color="#C40000"/>
  <stop offset="1" stop-color="#9F0000"/>
  </linearGradient>
  <linearGradient id="paint4_linear_0_1" x1="1192.78" y1="0" x2="1192.78" y2="614.831" gradientUnits="userSpaceOnUse">
  <stop stop-color="#7C0000"/>
  <stop offset="0.894092" stop-color="#9F0000"/>
  <stop offset="1" stop-color="#C40000"/>
  </linearGradient>
  <radialGradient id="paint5_radial_0_1" cx="0" cy="0" r="1" gradientUnits="userSpaceOnUse" gradientTransform="translate(1241.06 232.364) rotate(47.7454) scale(114.793 114.699)">
  <stop stop-color="#820003"/>
  <stop offset="1" stop-color="white"/>
  </radialGradient>
  <radialGradient id="paint6_radial_0_1" cx="0" cy="0" r="1" gradientUnits="userSpaceOnUse" gradientTransform="translate(1060.44 232.364) rotate(47.7454) scale(114.793 114.699)">
  <stop stop-color="#820003"/>
  <stop offset="1" stop-color="white"/>
  </radialGradient>
  </defs>
</svg>
