<svg width="1324" height="647" viewBox="0 0 1324 647" fill="none" xmlns="http://www.w3.org/2000/svg">
  <path d="M647.069 608.928C647.299 608.566 647.698 608.346 648.128 608.346H1262.71C1263.4 608.346 1263.96 608.907 1263.96 609.6V630.771C1263.96 631.464 1263.4 632.025 1262.71 632.025H634.699C633.711 632.025 633.111 630.934 633.641 630.1L647.069 608.928Z" fill="url(#paint0_linear_0_1)"/>
  <path d="M0.33252 609.318C0.33252 608.626 0.89369 608.065 1.58593 608.065H441.556C442.409 608.065 443.013 608.899 442.746 609.71L435.786 630.882C435.617 631.396 435.136 631.743 434.595 631.743H1.58593C0.89369 631.743 0.33252 631.182 0.33252 630.49V609.318Z" fill="url(#paint1_linear_0_1)"/>
  <path d="M918.239 378.762C893.697 378.762 869.203 383.677 845.836 390.866L852.882 435.405C854.641 446.525 866.025 452.871 876.87 449.849C891.834 445.679 919.166 437.438 930.581 450.346C897.373 447.464 857.334 453.592 838.877 484.679L838.796 484.808L838.719 484.942C833.458 494.295 831.109 505.228 831.109 517.075C831.109 529.12 833.1 540.054 837.699 549.538C846.942 568.603 865.076 579.542 885.271 583.975H885.313L885.338 583.989C895.672 586.203 906.856 587.261 918.902 587.261C937.331 587.261 953.243 586.146 966.86 583.764C979.566 581.756 989.579 579.967 997.071 578.328L1007.04 576.139V462.898C1007.04 441.177 1002.83 418.198 987.261 402.002C969.757 383.246 942.727 378.762 918.239 378.762ZM357.247 379.425C327.728 379.425 298.43 384.351 270.117 392.55V583.606H345.01V447.546C368.522 445.088 371.497 455.968 371.497 478.196V567.709C371.497 576.488 378.614 583.606 387.394 583.606H446.376V472.202C446.376 449.166 442.51 424.748 427.581 406.375C410.759 385.67 382.696 379.425 357.247 379.425ZM553.88 379.425C526.909 379.425 498.949 387.466 479.239 406.613L479.173 406.683L479.106 406.751C460.4 425.458 452.128 451.829 452.128 477.867C452.128 505.684 459.277 529.267 474.624 546.465L474.666 546.506L474.69 546.533C495.443 569.433 529.021 575.485 558.453 570.232C543.158 593.687 490.926 571.425 472.755 564.174L462.058 615.615C460.173 624.682 465.32 633.797 474.206 636.404C493.971 642.203 514.181 646.096 534.938 646.096C567.2 646.096 593.242 638.643 610.841 621.626C628.601 604.883 636.703 579.679 636.703 548.985V392.646C609.977 384.653 581.871 379.425 553.88 379.425ZM650.767 383.417V493.48C650.767 506.307 652.067 518.294 654.782 529.401C657.597 540.916 662.472 551.326 669.429 560.156L669.495 560.233L669.548 560.304C676.783 569.208 686.485 576.009 697.862 580.663L697.904 580.69L697.957 580.704C709.943 585.498 723.905 587.596 739.886 587.596C755.104 587.596 769.72 586.435 783.719 584.109C797.333 582.065 808.646 579.793 817.869 577.123L827.013 574.472V407.192C827.013 394.063 816.369 383.419 803.239 383.419H752.133V519.752C748.884 519.912 745.747 520.019 742.881 520.019C733.96 520.019 731.798 518.316 730.181 515.593C728.103 512.092 725.646 502.341 725.646 487.503V407.191C725.646 394.062 715.003 383.419 701.874 383.418L650.767 383.417ZM561.806 445.095V504.349C553.11 507.431 540.087 509.094 533.587 501.049C530.589 497.339 528.017 490.003 528.017 477.863C528.017 466.611 530.583 458.662 535.151 452.519C541.484 444.003 552.201 444.195 561.806 445.095ZM934.144 508.604V523.397C926.318 523.744 905.659 527.731 905.659 515.748C905.659 504.036 927.334 508.007 934.144 508.604Z" fill="url(#paint2_linear_0_1)"/>
  <path d="M197.345 383.416C187.498 383.416 179.515 391.399 179.515 401.246V513.706H78.3594V351.687C78.3594 338.558 67.7158 327.914 54.5862 327.914H1.15834C1.15836 409.566 1.10372 491.219 1.10551 572.87C1.10553 579.441 3.91271 583.793 9.40833 583.793C14.9039 583.793 187.642 583.606 254.394 583.606V383.416H197.345Z" fill="url(#paint3_linear_0_1)"/>
  <path d="M218.322 317.515C196.76 286.783 161.97 301.597 161.97 330.226C161.97 355.428 197.421 373.151 213.142 389.57C215.641 392.18 220.885 392.104 223.409 389.518C238.396 374.161 275.196 355.108 275.196 330.226C275.196 301.596 234.172 287.543 218.322 317.515Z" fill="url(#paint4_linear_0_1)"/>
  <path fill-rule="evenodd" clip-rule="evenodd" d="M983.208 0.00126745C1009.96 -0.359634 1029.12 76.4266 1040.82 123.342C1041.08 124.372 1041.33 125.387 1041.58 126.387C1045.18 125.504 1049.35 125.36 1054.12 126.203C1039.69 113.122 1060.59 89.4849 1075.57 103.374C1075.57 60.7 1149.69 47.2012 1166.04 93.4446C1195.14 66.8884 1251.39 109.073 1228.08 144.564C1229.04 144.197 1229.99 143.903 1230.91 143.677C1251.28 97.4306 1283.98 24.0841 1311.01 29.1095C1341.76 34.3133 1311.08 173.191 1250.76 181.692C1249.71 181.941 1248.47 181.911 1247.12 181.645C1251.19 189.346 1252.56 200.172 1244.24 209.92C1255.48 224.718 1251.89 236.372 1247.68 250.077C1245.7 256.514 1243.58 263.403 1242.79 271.282C1249.79 273.727 1256.87 288.716 1254.6 297.396C1275.14 309.873 1271.44 329.518 1260.2 340.918C1268.94 358.663 1262.7 370.737 1250.87 380.709C1250.85 392.569 1249.25 397.828 1240.3 401.849L1252.21 577.052C1252.21 577.052 1182.39 586.995 1137.38 586.995C1092.37 586.995 1022.56 577.052 1022.56 577.052L1032.84 401.867C1028.01 398.324 1020.1 387.273 1027.1 371.422C1020.18 370.8 1011.86 357.454 1016.55 349.293C1007.49 348.669 986.552 324.709 1011.94 303.85C1007.32 289.044 1016.38 274.833 1025.56 273.898C1025.29 264.135 1023.15 256.184 1021.21 249.028C1017.14 233.931 1014.02 222.377 1031.56 204.831C1018.17 195.992 1020.53 171.344 1036.7 169.354C1034.74 169.018 1032.99 168.29 1031.47 167.255C1027.36 170.408 1022.41 170.675 1016.95 165.371C962.637 115.292 953.273 -0.0792087 983.208 0.00126745Z" fill="url(#paint5_linear_0_1)"/>
  <path d="M1012.56 79.3526L1033.45 129.27C1023.26 133.912 1013.07 149.648 1020.94 163.579C1005.57 158.321 968.978 86.6249 973.439 44.7207C977.185 19.5479 998.197 34.0045 1012.56 79.3526Z" fill="#FFE8CC"/>
  <path d="M1270.19 105.221L1248.27 148.289C1259.8 150.159 1266.66 171.039 1259.49 178.519C1274.47 170.827 1310.72 142.31 1309.77 77.5173C1308.63 59.314 1297.89 47.8343 1270.19 105.221Z" fill="#FFE8CC"/>
  <path d="M1109.25 304.825C1067.49 310.451 1076.93 364.855 1101.57 372.215C1109.73 433.965 1192.08 424.281 1183.57 361.167C1211.53 336.855 1188.59 293.901 1159.66 298.261L1109.25 304.825Z" fill="#FFE8CC"/>
  <path d="M1166.86 367.968L1120.81 383.161C1120.81 383.161 1134.03 396.687 1150.72 390.57C1167.41 384.454 1166.86 367.968 1166.86 367.968Z" fill="#BD005B"/>
  <path d="M1136.8 314.534C1130.1 305.801 1114.98 309.68 1115.61 321.131C1116.24 332.583 1134.19 334.852 1137.9 339.545C1140.7 334.161 1158.75 331.305 1158.26 318.909C1157.78 306.513 1140.36 304.77 1136.8 314.534Z" fill="#BD005B"/>
  <path d="M1167.55 446.406C1167.82 471.467 1127.92 472.037 1126.84 451.797C1120.05 463.086 1095.75 454.705 1099.88 442.721C1089.43 445.471 1072.96 449.048 1065.14 422.817C1060.13 432.606 1071.72 455.014 1089.38 452.49C1090.37 458.85 1106.6 469.418 1123.44 471.718C1162.42 485.94 1229.43 440.038 1218.71 418.451C1219.37 425.371 1195.3 460.674 1167.55 446.406Z" fill="#FFE8CC"/>
  <path d="M1090.17 499.889C1073.5 515.908 1061.82 495.38 1066.18 487.018C1050.54 496.733 1065.79 522.68 1085.71 509.884C1090.2 524.837 1115.7 528.643 1119.11 513.043C1119.11 513.043 1091.94 521.323 1090.17 499.889Z" fill="#FFE8CC"/>
  <path d="M1156.78 551.336C1156.66 551.075 1156.64 550.873 1156.73 550.752C1156.75 550.949 1156.77 551.144 1156.78 551.336C1158.57 555.19 1182.15 572.045 1191.9 535.497C1222.25 564.006 1232.45 525.34 1233.68 516.818C1246.03 543.686 1220.98 565.088 1195.33 552.955C1185.26 568.247 1158.96 573.945 1156.78 551.336Z" fill="#FFE8CC"/>
  <path d="M1226.71 179.259L1226.68 179.293C1226.54 179.292 1226.41 179.292 1226.27 179.292C1203.98 179.292 1184.02 189.337 1170.7 205.149C1147.13 199.911 1131.26 200.22 1107.04 205.837C1093.71 189.63 1073.51 179.294 1050.89 179.294C1044.7 179.294 1038.68 180.069 1032.94 181.528C1014.12 182.325 995.888 184.259 981.668 185.767C979.8 185.964 978.002 186.155 976.281 186.335C967.179 187.286 963.243 195.941 969.98 202.135C977.226 208.795 984.4 216.29 983.498 224.757C980.107 233.155 978.24 242.331 978.24 251.944C978.24 292.067 1010.77 324.593 1050.89 324.593C1091.01 324.593 1123.54 292.067 1123.54 251.944C1123.54 244.396 1122.39 237.117 1120.25 230.272C1131.34 226.477 1145.23 226.368 1157.09 229.708C1154.84 236.715 1153.62 244.187 1153.62 251.942C1153.62 292.065 1186.15 324.591 1226.27 324.591C1266.4 324.591 1298.92 292.065 1298.92 251.942C1298.92 241.435 1296.69 231.448 1292.68 222.431C1292.06 214.138 1299.11 206.784 1306.24 200.235C1312.97 194.042 1309.04 185.386 1299.94 184.436C1298.22 184.256 1296.42 184.065 1294.55 183.868L1294.55 183.867C1276.17 181.919 1251.09 179.259 1226.71 179.259Z" fill="#1A1A1A"/>
  <circle cx="1225.5" cy="253.5" r="67.5" fill="url(#paint6_radial_0_1)"/>
  <circle cx="1051.5" cy="253.5" r="67.5" fill="url(#paint7_radial_0_1)"/>
  <path fill-rule="evenodd" clip-rule="evenodd" d="M1064.54 186.06C1063.51 182.336 1054.48 160.641 1051.19 158.089C1015.55 143.831 1000.74 208.915 1049.09 212.504C1049.37 234.687 1097.08 247.849 1108.6 218.051C1135.22 223.716 1162.5 194.21 1143.77 170.725C1133.67 158.055 1101.48 160.73 1106.77 181.307C1106.16 183.265 1103.62 196.914 1103.66 198.857C1088.79 196.373 1078.36 185.793 1064.54 186.06Z" fill="#FFE8CC"/>
  <path d="M1063.21 189.042C1041.58 206.815 1020.27 167.885 1050.95 158.224L1106.41 176.311C1138.65 168.25 1132.14 218.287 1103.34 204.333C1098.58 223.055 1055.22 215.624 1063.21 189.042Z" fill="white"/>
  <defs>
  <linearGradient id="paint0_linear_0_1" x1="1211.11" y1="608.186" x2="1211.11" y2="631.985" gradientUnits="userSpaceOnUse">
  <stop stop-color="#FFF5C3"/>
  <stop offset="1" stop-color="#FFFEF9"/>
  </linearGradient>
  <linearGradient id="paint1_linear_0_1" x1="406.218" y1="607.905" x2="406.218" y2="631.703" gradientUnits="userSpaceOnUse">
  <stop stop-color="#FFF5C3"/>
  <stop offset="1" stop-color="#FFFEF9"/>
  </linearGradient>
  <linearGradient id="paint2_linear_0_1" x1="922.855" y1="298.121" x2="922.855" y2="645.51" gradientUnits="userSpaceOnUse">
  <stop stop-color="white"/>
  <stop offset="0.669454" stop-color="white"/>
  <stop offset="1" stop-color="#FFF4BA"/>
  </linearGradient>
  <linearGradient id="paint3_linear_0_1" x1="922.855" y1="298.121" x2="922.855" y2="645.51" gradientUnits="userSpaceOnUse">
  <stop stop-color="white"/>
  <stop offset="0.669454" stop-color="white"/>
  <stop offset="1" stop-color="#FFF4BA"/>
  </linearGradient>
  <linearGradient id="paint4_linear_0_1" x1="922.855" y1="298.121" x2="922.855" y2="645.51" gradientUnits="userSpaceOnUse">
  <stop stop-color="white"/>
  <stop offset="0.669454" stop-color="white"/>
  <stop offset="1" stop-color="#FFF4BA"/>
  </linearGradient>
  <linearGradient id="paint5_linear_0_1" x1="1144.34" y1="174.5" x2="1144.34" y2="586.995" gradientUnits="userSpaceOnUse">
  <stop stop-color="white"/>
  <stop offset="0.895833" stop-color="white"/>
  <stop offset="1" stop-color="#FFF9DA"/>
  </linearGradient>
  <radialGradient id="paint6_radial_0_1" cx="0" cy="0" r="1" gradientUnits="userSpaceOnUse" gradientTransform="translate(1188.34 214.73) rotate(48.7826) scale(117.296)">
  <stop stop-color="#B07DA8"/>
  <stop offset="1" stop-color="#FFDE9E"/>
  </radialGradient>
  <radialGradient id="paint7_radial_0_1" cx="0" cy="0" r="1" gradientUnits="userSpaceOnUse" gradientTransform="translate(1014.34 214.73) rotate(48.7826) scale(117.296)">
  <stop stop-color="#B07DA8"/>
  <stop offset="1" stop-color="#FFDE9E"/>
  </radialGradient>
  </defs>
</svg>
