<svg width="1390" height="780" viewBox="0 0 1390 780" fill="none" xmlns="http://www.w3.org/2000/svg">
<g filter="url(#filter0_d_721_132)">
<path d="M660.069 608.928C660.299 608.566 660.698 608.346 661.128 608.346H1275.71C1276.4 608.346 1276.96 608.907 1276.96 609.6V630.771C1276.96 631.464 1276.4 632.025 1275.71 632.025H647.699C646.711 632.025 646.111 630.934 646.641 630.1L660.069 608.928Z" fill="url(#paint0_linear_721_132)"/>
<path d="M13.3325 609.318C13.3325 608.626 13.8937 608.065 14.5859 608.065H454.556C455.409 608.065 456.013 608.899 455.746 609.71L448.786 630.882C448.617 631.396 448.136 631.743 447.595 631.743H14.5859C13.8937 631.743 13.3325 631.182 13.3325 630.49V609.318Z" fill="url(#paint1_linear_721_132)"/>
<path d="M931.239 378.762C906.697 378.762 882.203 383.677 858.836 390.866L865.882 435.405C867.641 446.525 879.025 452.871 889.87 449.849C904.834 445.679 932.166 437.438 943.581 450.346C910.373 447.464 870.334 453.592 851.877 484.679L851.796 484.808L851.719 484.942C846.458 494.295 844.109 505.228 844.109 517.075C844.109 529.12 846.1 540.054 850.699 549.538C859.942 568.603 878.076 579.542 898.271 583.975H898.313L898.338 583.989C908.672 586.203 919.856 587.261 931.902 587.261C950.331 587.261 966.243 586.146 979.86 583.764C992.566 581.756 1002.58 579.967 1010.07 578.328L1020.04 576.139V462.898C1020.04 441.177 1015.83 418.198 1000.26 402.002C982.757 383.246 955.727 378.762 931.239 378.762ZM370.247 379.425C340.728 379.425 311.43 384.351 283.117 392.55V583.606H358.01V447.546C381.522 445.088 384.497 455.968 384.497 478.196V567.709C384.497 576.488 391.614 583.606 400.394 583.606H459.376V472.202C459.376 449.166 455.51 424.748 440.581 406.375C423.759 385.67 395.696 379.425 370.247 379.425ZM566.88 379.425C539.909 379.425 511.949 387.466 492.239 406.613L492.173 406.683L492.106 406.751C473.4 425.458 465.128 451.829 465.128 477.867C465.128 505.684 472.277 529.267 487.624 546.465L487.666 546.506L487.69 546.533C508.443 569.433 542.021 575.485 571.453 570.232C556.158 593.687 503.926 571.425 485.755 564.174L475.058 615.615C473.173 624.682 478.32 633.797 487.206 636.404C506.971 642.203 527.181 646.096 547.938 646.096C580.2 646.096 606.242 638.643 623.841 621.626C641.601 604.883 649.703 579.679 649.703 548.985V392.646C622.977 384.653 594.871 379.425 566.88 379.425ZM663.767 383.417V493.48C663.767 506.307 665.067 518.294 667.782 529.401C670.597 540.916 675.472 551.326 682.429 560.156L682.495 560.233L682.548 560.304C689.783 569.208 699.485 576.009 710.862 580.663L710.904 580.69L710.957 580.704C722.943 585.498 736.905 587.596 752.886 587.596C768.104 587.596 782.72 586.435 796.719 584.109C810.333 582.065 821.646 579.793 830.869 577.123L840.013 574.472V407.192C840.013 394.063 829.369 383.419 816.239 383.419H765.133V519.752C761.884 519.912 758.747 520.019 755.881 520.019C746.96 520.019 744.798 518.316 743.181 515.593C741.103 512.092 738.646 502.341 738.646 487.503V407.191C738.646 394.062 728.003 383.419 714.874 383.418L663.767 383.417ZM574.806 445.095V504.349C566.11 507.431 553.087 509.094 546.587 501.049C543.589 497.339 541.017 490.003 541.017 477.863C541.017 466.611 543.583 458.662 548.151 452.519C554.484 444.003 565.201 444.195 574.806 445.095ZM947.144 508.604V523.397C939.318 523.744 918.659 527.731 918.659 515.748C918.659 504.036 940.334 508.007 947.144 508.604Z" fill="url(#paint2_linear_721_132)"/>
<path d="M210.345 383.416C200.498 383.416 192.515 391.399 192.515 401.246V513.706H91.3594V351.687C91.3594 338.558 80.7158 327.914 67.5862 327.914H14.1583C14.1584 409.566 14.1037 491.219 14.1055 572.87C14.1055 579.441 16.9127 583.793 22.4083 583.793C27.9039 583.793 200.642 583.606 267.394 583.606V383.416H210.345Z" fill="url(#paint3_linear_721_132)"/>
<path d="M231.322 317.515C209.76 286.783 174.97 301.597 174.97 330.226C174.97 355.428 210.421 373.151 226.142 389.57C228.641 392.18 233.885 392.104 236.409 389.518C251.396 374.161 288.196 355.108 288.196 330.226C288.196 301.596 247.172 287.543 231.322 317.515Z" fill="url(#paint4_linear_721_132)"/>
<path d="M21.098 746.713C22.66 746.713 23.9379 746.594 24.9319 746.358C25.9731 746.074 26.8014 745.719 27.4167 745.293C28.032 744.819 28.458 744.275 28.6947 743.66C28.9313 743.044 29.0496 742.358 29.0496 741.601C29.0496 739.992 28.2924 738.666 26.7778 737.625C25.2632 736.536 22.66 735.377 18.9682 734.146C17.3589 733.578 15.7496 732.939 14.1404 732.229C12.5311 731.472 11.0875 730.549 9.80961 729.46C8.53167 728.324 7.49039 726.976 6.68577 725.414C5.88114 723.804 5.47883 721.864 5.47883 719.592C5.47883 717.32 5.9048 715.285 6.75676 713.486C7.60872 711.64 8.81566 710.078 10.3776 708.8C11.9395 707.523 13.8327 706.552 16.0573 705.89C18.2819 705.18 20.7904 704.825 23.5829 704.825C26.8961 704.825 29.7596 705.18 32.1735 705.89C34.5874 706.6 36.5753 707.381 38.1372 708.232L34.9424 716.965C33.5698 716.255 32.0315 715.64 30.3276 715.119C28.671 714.551 26.6594 714.267 24.2929 714.267C21.6424 714.267 19.7254 714.646 18.5422 715.403C17.4062 716.113 16.8383 717.225 16.8383 718.74C16.8383 719.639 17.0512 720.397 17.4772 721.012C17.9032 721.627 18.4948 722.195 19.2521 722.716C20.0568 723.189 20.9561 723.639 21.95 724.065C22.9913 724.443 24.1272 724.846 25.3578 725.272C27.9137 726.218 30.1383 727.165 32.0315 728.111C33.9247 729.011 35.4867 730.076 36.7173 731.306C37.9952 732.537 38.9418 733.981 39.5571 735.637C40.1724 737.294 40.4801 739.305 40.4801 741.672C40.4801 746.263 38.8708 749.836 35.6523 752.392C32.4338 754.901 27.5824 756.155 21.098 756.155C18.9208 756.155 16.9566 756.013 15.2053 755.729C13.4541 755.492 11.8922 755.185 10.5196 754.806C9.19431 754.428 8.0347 754.025 7.04075 753.599C6.09413 753.173 5.2895 752.771 4.62687 752.392L7.75071 743.589C9.21797 744.393 11.0165 745.127 13.1464 745.79C15.3237 746.405 17.9742 746.713 21.098 746.713ZM47.227 755.161V705.961H80.4533V715.261H58.3024V724.917H77.9684V734.004H58.3024V745.861H82.0862V755.161H47.227ZM102.92 705.393C110.303 705.393 115.959 706.718 119.888 709.368C123.816 711.972 125.781 716.042 125.781 721.58C125.781 725.035 124.976 727.851 123.367 730.028C121.805 732.158 119.533 733.839 116.551 735.069C117.545 736.3 118.586 737.72 119.675 739.329C120.764 740.891 121.829 742.547 122.87 744.299C123.958 746.003 125 747.801 125.994 749.694C126.988 751.54 127.911 753.363 128.762 755.161H116.338C115.439 753.552 114.516 751.919 113.569 750.262C112.67 748.606 111.723 746.997 110.729 745.435C109.783 743.873 108.836 742.405 107.89 741.033C106.943 739.613 105.996 738.335 105.05 737.199H99.583V755.161H88.5075V706.671C90.9214 706.197 93.4063 705.866 95.9621 705.677C98.5653 705.487 100.885 705.393 102.92 705.393ZM103.559 714.835C102.754 714.835 102.02 714.859 101.358 714.906C100.743 714.953 100.151 715.001 99.583 715.048V728.395H102.707C106.872 728.395 109.854 727.875 111.652 726.834C113.451 725.792 114.35 724.017 114.35 721.509C114.35 719.095 113.427 717.391 111.581 716.397C109.783 715.356 107.109 714.835 103.559 714.835ZM147.672 755.161C145.731 751.043 143.814 746.76 141.921 742.311C140.028 737.862 138.229 733.46 136.526 729.105C134.822 724.751 133.236 720.586 131.769 716.61C130.349 712.634 129.118 709.084 128.077 705.961H140.288C141.235 708.8 142.253 711.877 143.341 715.19C144.477 718.456 145.613 721.722 146.749 724.988C147.932 728.253 149.068 731.377 150.157 734.359C151.245 737.341 152.263 739.921 153.21 742.098C154.109 739.921 155.103 737.341 156.192 734.359C157.327 731.377 158.463 728.253 159.599 724.988C160.783 721.722 161.919 718.456 163.007 715.19C164.143 711.877 165.184 708.8 166.131 705.961H177.916C176.828 709.084 175.574 712.634 174.154 716.61C172.734 720.586 171.172 724.751 169.468 729.105C167.764 733.46 165.965 737.862 164.072 742.311C162.179 746.76 160.262 751.043 158.321 755.161H147.672ZM182.508 705.961H193.584V755.161H182.508V705.961ZM236.211 755.161C233.039 749.529 229.608 743.967 225.916 738.477C222.224 732.987 218.296 727.804 214.131 722.929V755.161H203.197V705.961H212.214C213.776 707.523 215.503 709.439 217.397 711.711C219.29 713.983 221.207 716.421 223.147 719.024C225.135 721.58 227.099 724.254 229.04 727.047C230.981 729.792 232.803 732.442 234.507 734.998V705.961H245.511V755.161H236.211ZM279.082 714.48C273.923 714.48 270.184 715.924 267.865 718.811C265.593 721.651 264.457 725.556 264.457 730.525C264.457 732.939 264.741 735.14 265.309 737.128C265.877 739.069 266.729 740.749 267.865 742.169C269.001 743.589 270.421 744.701 272.125 745.506C273.829 746.263 275.817 746.642 278.089 746.642C279.319 746.642 280.36 746.618 281.212 746.571C282.112 746.523 282.893 746.429 283.555 746.287V729.176H294.631V753.528C293.305 754.049 291.176 754.593 288.241 755.161C285.307 755.776 281.686 756.084 277.379 756.084C273.687 756.084 270.326 755.516 267.297 754.38C264.315 753.244 261.759 751.588 259.629 749.41C257.5 747.233 255.843 744.559 254.66 741.388C253.524 738.217 252.956 734.596 252.956 730.525C252.956 726.408 253.595 722.763 254.873 719.592C256.151 716.421 257.902 713.747 260.126 711.569C262.351 709.345 264.954 707.665 267.936 706.529C270.965 705.393 274.184 704.825 277.592 704.825C279.911 704.825 281.993 704.99 283.839 705.322C285.732 705.606 287.342 705.961 288.667 706.387C290.04 706.765 291.152 707.168 292.004 707.594C292.903 708.019 293.542 708.351 293.921 708.587L290.726 717.462C289.211 716.657 287.46 715.971 285.472 715.403C283.532 714.788 281.402 714.48 279.082 714.48ZM351.384 755.161C350.863 753.457 350.272 751.706 349.609 749.907C348.994 748.109 348.379 746.31 347.763 744.512H328.594C327.979 746.31 327.34 748.109 326.677 749.907C326.062 751.706 325.494 753.457 324.973 755.161H313.472C315.318 749.86 317.069 744.961 318.726 740.465C320.382 735.968 321.992 731.732 323.553 727.757C325.163 723.781 326.725 720.018 328.239 716.468C329.801 712.871 331.41 709.368 333.067 705.961H343.645C345.255 709.368 346.84 712.871 348.402 716.468C349.964 720.018 351.526 723.781 353.088 727.757C354.697 731.732 356.33 735.968 357.987 740.465C359.643 744.961 361.395 749.86 363.24 755.161H351.384ZM338.108 717.107C337.871 717.817 337.516 718.787 337.043 720.018C336.569 721.248 336.025 722.668 335.41 724.278C334.795 725.887 334.108 727.662 333.351 729.602C332.641 731.543 331.907 733.578 331.15 735.708H345.136C344.379 733.578 343.645 731.543 342.935 729.602C342.226 727.662 341.539 725.887 340.877 724.278C340.261 722.668 339.717 721.248 339.244 720.018C338.77 718.787 338.392 717.817 338.108 717.107ZM400.705 745.648V755.161H367.834V705.961H378.91V745.648H400.705ZM438.935 745.648V755.161H406.064V705.961H417.14V745.648H438.935ZM492.446 745.648V755.161H459.575V705.961H470.65V745.648H492.446ZM532.966 755.161C532.445 753.457 531.854 751.706 531.191 749.907C530.576 748.109 529.96 746.31 529.345 744.512H510.176C509.561 746.31 508.922 748.109 508.259 749.907C507.644 751.706 507.076 753.457 506.555 755.161H495.054C496.9 749.86 498.651 744.961 500.307 740.465C501.964 735.968 503.573 731.732 505.135 727.757C506.744 723.781 508.306 720.018 509.821 716.468C511.383 712.871 512.992 709.368 514.649 705.961H525.227C526.836 709.368 528.422 712.871 529.984 716.468C531.546 720.018 533.108 723.781 534.67 727.757C536.279 731.732 537.912 735.968 539.568 740.465C541.225 744.961 542.976 749.86 544.822 755.161H532.966ZM519.689 717.107C519.453 717.817 519.098 718.787 518.625 720.018C518.151 721.248 517.607 722.668 516.992 724.278C516.376 725.887 515.69 727.662 514.933 729.602C514.223 731.543 513.489 733.578 512.732 735.708H526.718C525.961 733.578 525.227 731.543 524.517 729.602C523.807 727.662 523.121 725.887 522.458 724.278C521.843 722.668 521.299 721.248 520.825 720.018C520.352 718.787 519.973 717.817 519.689 717.107ZM582.429 755.161C579.258 749.529 575.827 743.967 572.135 738.477C568.443 732.987 564.514 727.804 560.349 722.929V755.161H549.416V705.961H558.432C559.994 707.523 561.722 709.439 563.615 711.711C565.508 713.983 567.425 716.421 569.366 719.024C571.354 721.58 573.318 724.254 575.259 727.047C577.199 729.792 579.021 732.442 580.725 734.998V705.961H591.73V755.161H582.429ZM625.301 714.48C620.142 714.48 616.403 715.924 614.084 718.811C611.812 721.651 610.676 725.556 610.676 730.525C610.676 732.939 610.96 735.14 611.528 737.128C612.096 739.069 612.948 740.749 614.084 742.169C615.22 743.589 616.64 744.701 618.343 745.506C620.047 746.263 622.035 746.642 624.307 746.642C625.538 746.642 626.579 746.618 627.431 746.571C628.33 746.523 629.111 746.429 629.774 746.287V729.176H640.849V753.528C639.524 754.049 637.394 754.593 634.46 755.161C631.525 755.776 627.904 756.084 623.597 756.084C619.905 756.084 616.545 755.516 613.516 754.38C610.534 753.244 607.978 751.588 605.848 749.41C603.718 747.233 602.062 744.559 600.878 741.388C599.742 738.217 599.174 734.596 599.174 730.525C599.174 726.408 599.813 722.763 601.091 719.592C602.369 716.421 604.12 713.747 606.345 711.569C608.57 709.345 611.173 707.665 614.155 706.529C617.184 705.393 620.402 704.825 623.81 704.825C626.129 704.825 628.212 704.99 630.058 705.322C631.951 705.606 633.56 705.961 634.886 706.387C636.258 706.765 637.37 707.168 638.222 707.594C639.122 708.019 639.761 708.351 640.139 708.587L636.945 717.462C635.43 716.657 633.679 715.971 631.691 715.403C629.75 714.788 627.62 714.48 625.301 714.48ZM668.619 756.155C665.164 756.155 662.182 755.682 659.674 754.735C657.165 753.741 655.083 752.392 653.426 750.688C651.817 748.937 650.61 746.878 649.805 744.512C649.048 742.098 648.669 739.447 648.669 736.56V705.961H659.745V735.637C659.745 737.625 659.958 739.329 660.384 740.749C660.857 742.121 661.472 743.257 662.23 744.157C663.034 745.009 663.981 745.624 665.07 746.003C666.206 746.381 667.436 746.571 668.761 746.571C671.459 746.571 673.637 745.742 675.293 744.086C676.997 742.429 677.849 739.613 677.849 735.637V705.961H688.924V736.56C688.924 739.447 688.522 742.098 687.718 744.512C686.913 746.926 685.682 749.008 684.026 750.759C682.369 752.463 680.263 753.789 677.707 754.735C675.151 755.682 672.122 756.155 668.619 756.155ZM729.357 755.161C728.836 753.457 728.245 751.706 727.582 749.907C726.967 748.109 726.351 746.31 725.736 744.512H706.567C705.952 746.31 705.313 748.109 704.65 749.907C704.035 751.706 703.467 753.457 702.946 755.161H691.445C693.291 749.86 695.042 744.961 696.699 740.465C698.355 735.968 699.964 731.732 701.526 727.757C703.136 723.781 704.697 720.018 706.212 716.468C707.774 712.871 709.383 709.368 711.04 705.961H721.618C723.228 709.368 724.813 712.871 726.375 716.468C727.937 720.018 729.499 723.781 731.061 727.757C732.67 731.732 734.303 735.968 735.96 740.465C737.616 744.961 739.367 749.86 741.213 755.161H729.357ZM716.081 717.107C715.844 717.817 715.489 718.787 715.016 720.018C714.542 721.248 713.998 722.668 713.383 724.278C712.767 725.887 712.081 727.662 711.324 729.602C710.614 731.543 709.88 733.578 709.123 735.708H723.109C722.352 733.578 721.618 731.543 720.908 729.602C720.198 727.662 719.512 725.887 718.849 724.278C718.234 722.668 717.69 721.248 717.217 720.018C716.743 718.787 716.365 717.817 716.081 717.107ZM768.001 714.48C762.842 714.48 759.103 715.924 756.784 718.811C754.512 721.651 753.376 725.556 753.376 730.525C753.376 732.939 753.66 735.14 754.228 737.128C754.796 739.069 755.648 740.749 756.784 742.169C757.92 743.589 759.34 744.701 761.044 745.506C762.747 746.263 764.735 746.642 767.007 746.642C768.238 746.642 769.279 746.618 770.131 746.571C771.03 746.523 771.811 746.429 772.474 746.287V729.176H783.549V753.528C782.224 754.049 780.094 754.593 777.16 755.161C774.225 755.776 770.604 756.084 766.297 756.084C762.605 756.084 759.245 755.516 756.216 754.38C753.234 753.244 750.678 751.588 748.548 749.41C746.418 747.233 744.762 744.559 743.578 741.388C742.442 738.217 741.874 734.596 741.874 730.525C741.874 726.408 742.513 722.763 743.791 719.592C745.069 716.421 746.821 713.747 749.045 711.569C751.27 709.345 753.873 707.665 756.855 706.529C759.884 705.393 763.102 704.825 766.51 704.825C768.829 704.825 770.912 704.99 772.758 705.322C774.651 705.606 776.26 705.961 777.586 706.387C778.958 706.765 780.071 707.168 780.923 707.594C781.822 708.019 782.461 708.351 782.839 708.587L779.645 717.462C778.13 716.657 776.379 715.971 774.391 715.403C772.45 714.788 770.32 714.48 768.001 714.48ZM792.079 755.161V705.961H825.306V715.261H803.155V724.917H822.821V734.004H803.155V745.861H826.939V755.161H792.079ZM846.778 746.713C848.34 746.713 849.618 746.594 850.612 746.358C851.653 746.074 852.482 745.719 853.097 745.293C853.712 744.819 854.138 744.275 854.375 743.66C854.612 743.044 854.73 742.358 854.73 741.601C854.73 739.992 853.973 738.666 852.458 737.625C850.944 736.536 848.34 735.377 844.649 734.146C843.039 733.578 841.43 732.939 839.821 732.229C838.211 731.472 836.768 730.549 835.49 729.46C834.212 728.324 833.171 726.976 832.366 725.414C831.561 723.804 831.159 721.864 831.159 719.592C831.159 717.32 831.585 715.285 832.437 713.486C833.289 711.64 834.496 710.078 836.058 708.8C837.62 707.523 839.513 706.552 841.738 705.89C843.962 705.18 846.471 704.825 849.263 704.825C852.576 704.825 855.44 705.18 857.854 705.89C860.268 706.6 862.256 707.381 863.818 708.232L860.623 716.965C859.25 716.255 857.712 715.64 856.008 715.119C854.351 714.551 852.34 714.267 849.973 714.267C847.323 714.267 845.406 714.646 844.223 715.403C843.087 716.113 842.519 717.225 842.519 718.74C842.519 719.639 842.732 720.397 843.158 721.012C843.584 721.627 844.175 722.195 844.932 722.716C845.737 723.189 846.636 723.639 847.63 724.065C848.672 724.443 849.808 724.846 851.038 725.272C853.594 726.218 855.819 727.165 857.712 728.111C859.605 729.011 861.167 730.076 862.398 731.306C863.676 732.537 864.622 733.981 865.237 735.637C865.853 737.294 866.16 739.305 866.16 741.672C866.16 746.263 864.551 749.836 861.333 752.392C858.114 754.901 853.263 756.155 846.778 756.155C844.601 756.155 842.637 756.013 840.886 755.729C839.134 755.492 837.573 755.185 836.2 754.806C834.875 754.428 833.715 754.025 832.721 753.599C831.774 753.173 830.97 752.771 830.307 752.392L833.431 743.589C834.898 744.393 836.697 745.127 838.827 745.79C841.004 746.405 843.655 746.713 846.778 746.713ZM921.202 711.214C921.77 713.155 922.385 715.356 923.047 717.817C923.757 720.231 924.491 722.739 925.248 725.343C926.053 727.946 926.858 730.549 927.662 733.152C928.467 735.755 929.248 738.169 930.005 740.394C930.62 737.98 931.236 735.353 931.851 732.513C932.514 729.673 933.129 726.739 933.697 723.71C934.265 720.681 934.809 717.675 935.33 714.693C935.898 711.664 936.418 708.753 936.892 705.961H948.393C946.737 714.196 944.82 722.55 942.642 731.022C940.513 739.495 938.193 747.541 935.685 755.161H925.532C923.876 750.617 922.266 745.861 920.705 740.891C919.143 735.874 917.604 730.857 916.09 725.84C914.575 730.857 913.061 735.874 911.546 740.891C910.031 745.861 908.446 750.617 906.789 755.161H896.637C894.128 747.541 891.785 739.495 889.608 731.022C887.478 722.55 885.585 714.196 883.928 705.961H895.927C896.4 708.753 896.921 711.664 897.489 714.693C898.057 717.675 898.648 720.681 899.264 723.71C899.879 726.739 900.494 729.673 901.11 732.513C901.772 735.353 902.435 737.98 903.097 740.394C903.949 738.075 904.778 735.613 905.582 733.01C906.387 730.407 907.168 727.804 907.925 725.201C908.683 722.597 909.369 720.089 909.984 717.675C910.647 715.261 911.238 713.108 911.759 711.214H921.202ZM962.342 730.525C962.342 732.939 962.626 735.116 963.194 737.057C963.81 738.998 964.662 740.678 965.75 742.098C966.886 743.47 968.259 744.535 969.868 745.293C971.477 746.05 973.323 746.429 975.406 746.429C977.441 746.429 979.263 746.05 980.872 745.293C982.529 744.535 983.902 743.47 984.99 742.098C986.126 740.678 986.978 738.998 987.546 737.057C988.161 735.116 988.469 732.939 988.469 730.525C988.469 728.111 988.161 725.934 987.546 723.994C986.978 722.006 986.126 720.326 984.99 718.953C983.902 717.533 982.529 716.444 980.872 715.687C979.263 714.93 977.441 714.551 975.406 714.551C973.323 714.551 971.477 714.953 969.868 715.758C968.259 716.515 966.886 717.604 965.75 719.024C964.662 720.397 963.81 722.077 963.194 724.065C962.626 726.005 962.342 728.159 962.342 730.525ZM999.899 730.525C999.899 734.738 999.26 738.453 997.983 741.672C996.752 744.843 995.048 747.517 992.871 749.694C990.694 751.824 988.09 753.434 985.061 754.522C982.079 755.611 978.861 756.155 975.406 756.155C972.045 756.155 968.874 755.611 965.892 754.522C962.91 753.434 960.307 751.824 958.083 749.694C955.858 747.517 954.107 744.843 952.829 741.672C951.551 738.453 950.912 734.738 950.912 730.525C950.912 726.313 951.575 722.621 952.9 719.45C954.225 716.231 956 713.534 958.225 711.356C960.496 709.179 963.1 707.546 966.034 706.458C969.016 705.369 972.14 704.825 975.406 704.825C978.766 704.825 981.937 705.369 984.919 706.458C987.901 707.546 990.504 709.179 992.729 711.356C994.953 713.534 996.705 716.231 997.983 719.45C999.26 722.621 999.899 726.313 999.899 730.525ZM1021.77 705.393C1029.15 705.393 1034.81 706.718 1038.74 709.368C1042.67 711.972 1044.63 716.042 1044.63 721.58C1044.63 725.035 1043.83 727.851 1042.22 730.028C1040.65 732.158 1038.38 733.839 1035.4 735.069C1036.39 736.3 1037.44 737.72 1038.52 739.329C1039.61 740.891 1040.68 742.547 1041.72 744.299C1042.81 746.003 1043.85 747.801 1044.84 749.694C1045.84 751.54 1046.76 753.363 1047.61 755.161H1035.19C1034.29 753.552 1033.37 751.919 1032.42 750.262C1031.52 748.606 1030.57 746.997 1029.58 745.435C1028.63 743.873 1027.69 742.405 1026.74 741.033C1025.79 739.613 1024.85 738.335 1023.9 737.199H1018.43V755.161H1007.36V706.671C1009.77 706.197 1012.26 705.866 1014.81 705.677C1017.41 705.487 1019.73 705.393 1021.77 705.393ZM1022.41 714.835C1021.6 714.835 1020.87 714.859 1020.21 714.906C1019.59 714.953 1019 715.001 1018.43 715.048V728.395H1021.56C1025.72 728.395 1028.7 727.875 1030.5 726.834C1032.3 725.792 1033.2 724.017 1033.2 721.509C1033.2 719.095 1032.28 717.391 1030.43 716.397C1028.63 715.356 1025.96 714.835 1022.41 714.835ZM1085.81 745.648V755.161H1052.94V705.961H1064.01V745.648H1085.81ZM1102.24 746.145C1102.76 746.192 1103.35 746.239 1104.02 746.287C1104.73 746.287 1105.55 746.287 1106.5 746.287C1112.04 746.287 1116.13 744.89 1118.78 742.098C1121.48 739.305 1122.83 735.448 1122.83 730.525C1122.83 725.366 1121.55 721.461 1119 718.811C1116.44 716.16 1112.39 714.835 1106.86 714.835C1106.1 714.835 1105.32 714.859 1104.51 714.906C1103.71 714.906 1102.95 714.953 1102.24 715.048V746.145ZM1134.26 730.525C1134.26 734.785 1133.6 738.501 1132.27 741.672C1130.95 744.843 1129.05 747.47 1126.59 749.552C1124.18 751.635 1121.22 753.197 1117.72 754.238C1114.22 755.279 1110.29 755.8 1105.93 755.8C1103.95 755.8 1101.63 755.705 1098.98 755.516C1096.32 755.374 1093.72 755.043 1091.17 754.522V706.6C1093.72 706.126 1096.37 705.819 1099.12 705.677C1101.91 705.487 1104.3 705.393 1106.29 705.393C1110.5 705.393 1114.31 705.866 1117.72 706.813C1121.17 707.759 1124.13 709.25 1126.59 711.285C1129.05 713.321 1130.95 715.924 1132.27 719.095C1133.6 722.266 1134.26 726.076 1134.26 730.525ZM1174.06 711.214C1174.63 713.155 1175.24 715.356 1175.9 717.817C1176.61 720.231 1177.35 722.739 1178.1 725.343C1178.91 727.946 1179.71 730.549 1180.52 733.152C1181.32 735.755 1182.1 738.169 1182.86 740.394C1183.48 737.98 1184.09 735.353 1184.71 732.513C1185.37 729.673 1185.98 726.739 1186.55 723.71C1187.12 720.681 1187.66 717.675 1188.19 714.693C1188.75 711.664 1189.27 708.753 1189.75 705.961H1201.25C1199.59 714.196 1197.68 722.55 1195.5 731.022C1193.37 739.495 1191.05 747.541 1188.54 755.161H1178.39C1176.73 750.617 1175.12 745.861 1173.56 740.891C1172 735.874 1170.46 730.857 1168.95 725.84C1167.43 730.857 1165.92 735.874 1164.4 740.891C1162.89 745.861 1161.3 750.617 1159.64 755.161H1149.49C1146.98 747.541 1144.64 739.495 1142.46 731.022C1140.33 722.55 1138.44 714.196 1136.78 705.961H1148.78C1149.26 708.753 1149.78 711.664 1150.34 714.693C1150.91 717.675 1151.5 720.681 1152.12 723.71C1152.73 726.739 1153.35 729.673 1153.97 732.513C1154.63 735.353 1155.29 737.98 1155.95 740.394C1156.8 738.075 1157.63 735.613 1158.44 733.01C1159.24 730.407 1160.02 727.804 1160.78 725.201C1161.54 722.597 1162.22 720.089 1162.84 717.675C1163.5 715.261 1164.09 713.108 1164.61 711.214H1174.06ZM1206.59 705.961H1217.67V755.161H1206.59V705.961ZM1238.35 746.145C1238.88 746.192 1239.47 746.239 1240.13 746.287C1240.84 746.287 1241.67 746.287 1242.61 746.287C1248.15 746.287 1252.25 744.89 1254.9 742.098C1257.59 739.305 1258.94 735.448 1258.94 730.525C1258.94 725.366 1257.67 721.461 1255.11 718.811C1252.55 716.16 1248.51 714.835 1242.97 714.835C1242.21 714.835 1241.43 714.859 1240.63 714.906C1239.82 714.906 1239.06 714.953 1238.35 715.048V746.145ZM1270.37 730.525C1270.37 734.785 1269.71 738.501 1268.39 741.672C1267.06 744.843 1265.17 747.47 1262.71 749.552C1260.29 751.635 1257.33 753.197 1253.83 754.238C1250.33 755.279 1246.4 755.8 1242.05 755.8C1240.06 755.8 1237.74 755.705 1235.09 755.516C1232.44 755.374 1229.84 755.043 1227.28 754.522V706.6C1229.84 706.126 1232.49 705.819 1235.23 705.677C1238.02 705.487 1240.41 705.393 1242.4 705.393C1246.61 705.393 1250.42 705.866 1253.83 706.813C1257.29 707.759 1260.25 709.25 1262.71 711.285C1265.17 713.321 1267.06 715.924 1268.39 719.095C1269.71 722.266 1270.37 726.076 1270.37 730.525ZM1277.85 755.161V705.961H1311.08V715.261H1288.93V724.917H1308.59V734.004H1288.93V745.861H1312.71V755.161H1277.85Z" fill="url(#paint5_linear_721_132)"/>
<path fill-rule="evenodd" clip-rule="evenodd" d="M996.208 0.00126745C1022.96 -0.359634 1042.12 76.4266 1053.82 123.342C1054.08 124.372 1054.33 125.387 1054.58 126.387C1058.18 125.504 1062.35 125.36 1067.12 126.203C1052.69 113.122 1073.59 89.4849 1088.57 103.374C1088.57 60.7 1162.69 47.2012 1179.04 93.4446C1208.14 66.8884 1264.39 109.073 1241.08 144.564C1242.04 144.197 1242.99 143.903 1243.91 143.677C1264.28 97.4306 1296.98 24.0841 1324.01 29.1095C1354.76 34.3133 1324.08 173.191 1263.76 181.692C1262.71 181.941 1261.47 181.911 1260.12 181.645C1264.19 189.346 1265.56 200.172 1257.24 209.92C1268.48 224.718 1264.89 236.372 1260.68 250.077C1258.7 256.514 1256.58 263.403 1255.79 271.282C1262.79 273.727 1269.87 288.716 1267.6 297.396C1288.14 309.873 1284.44 329.518 1273.2 340.918C1281.94 358.663 1275.7 370.737 1263.87 380.709C1263.85 392.569 1262.25 397.828 1253.3 401.849L1265.21 577.052C1265.21 577.052 1195.39 586.995 1150.38 586.995C1105.37 586.995 1035.56 577.052 1035.56 577.052L1045.84 401.867C1041.01 398.324 1033.1 387.273 1040.1 371.422C1033.18 370.8 1024.86 357.454 1029.55 349.293C1020.49 348.669 999.552 324.709 1024.94 303.85C1020.32 289.044 1029.38 274.833 1038.56 273.898C1038.29 264.135 1036.15 256.184 1034.21 249.028C1030.14 233.931 1027.02 222.377 1044.56 204.831C1031.17 195.992 1033.53 171.344 1049.7 169.354C1047.74 169.018 1045.99 168.29 1044.47 167.255C1040.36 170.408 1035.41 170.675 1029.95 165.371C975.637 115.292 966.273 -0.0792087 996.208 0.00126745Z" fill="url(#paint6_linear_721_132)"/>
<path d="M1025.56 79.3526L1046.45 129.27C1036.26 133.912 1026.07 149.648 1033.94 163.579C1018.57 158.321 981.978 86.6249 986.439 44.7207C990.185 19.5479 1011.2 34.0045 1025.56 79.3526Z" fill="#FFE8CC"/>
<path d="M1283.19 105.221L1261.27 148.289C1272.8 150.159 1279.66 171.039 1272.49 178.519C1287.47 170.827 1323.72 142.31 1322.77 77.5173C1321.63 59.314 1310.89 47.8343 1283.19 105.221Z" fill="#FFE8CC"/>
<path d="M1122.25 304.825C1080.49 310.451 1089.93 364.855 1114.57 372.215C1122.73 433.965 1205.08 424.281 1196.57 361.167C1224.53 336.855 1201.59 293.901 1172.66 298.261L1122.25 304.825Z" fill="#FFE8CC"/>
<path d="M1179.86 367.968L1133.81 383.162C1133.81 383.162 1147.03 396.687 1163.72 390.571C1180.41 384.454 1179.86 367.968 1179.86 367.968Z" fill="#BD005B"/>
<path d="M1149.8 314.534C1143.1 305.801 1127.98 309.68 1128.61 321.131C1129.24 332.583 1147.19 334.852 1150.9 339.545C1153.7 334.161 1171.75 331.304 1171.26 318.908C1170.78 306.513 1153.36 304.77 1149.8 314.534Z" fill="#BD005B"/>
<path d="M1180.55 446.406C1180.82 471.467 1140.92 472.037 1139.84 451.798C1133.05 463.086 1108.75 454.705 1112.88 442.721C1102.43 445.471 1085.96 449.048 1078.14 422.817C1073.13 432.607 1084.72 455.015 1102.38 452.491C1103.37 458.85 1119.6 469.418 1136.44 471.718C1175.42 485.941 1242.43 440.038 1231.71 418.451C1232.37 425.371 1208.3 460.675 1180.55 446.406Z" fill="#FFE8CC"/>
<path d="M1103.17 499.889C1086.5 515.908 1074.82 495.38 1079.18 487.018C1063.54 496.733 1078.79 522.68 1098.71 509.884C1103.2 524.837 1128.7 528.643 1132.11 513.043C1132.11 513.043 1104.94 521.323 1103.17 499.889Z" fill="#FFE8CC"/>
<path d="M1169.78 551.337C1169.66 551.075 1169.64 550.874 1169.73 550.753C1169.75 550.949 1169.77 551.144 1169.78 551.337C1171.57 555.19 1195.15 572.045 1204.9 535.498C1235.25 564.006 1245.45 525.341 1246.68 516.818C1259.03 543.686 1233.98 565.089 1208.33 552.955C1198.26 568.248 1171.96 573.946 1169.78 551.337Z" fill="#FFE8CC"/>
<path d="M1239.71 179.259L1239.68 179.293C1239.54 179.292 1239.41 179.292 1239.27 179.292C1216.98 179.292 1197.02 189.337 1183.7 205.149C1160.13 199.911 1144.26 200.22 1120.04 205.837C1106.71 189.63 1086.51 179.294 1063.89 179.294C1057.7 179.294 1051.68 180.069 1045.94 181.528C1027.12 182.325 1008.89 184.259 994.668 185.767C992.8 185.964 991.002 186.155 989.281 186.335C980.179 187.286 976.243 195.941 982.98 202.135C990.226 208.795 997.4 216.29 996.498 224.757C993.107 233.155 991.24 242.331 991.24 251.944C991.24 292.067 1023.77 324.593 1063.89 324.593C1104.01 324.593 1136.54 292.067 1136.54 251.944C1136.54 244.396 1135.39 237.117 1133.25 230.272C1144.34 226.477 1158.23 226.368 1170.09 229.708C1167.84 236.715 1166.62 244.187 1166.62 251.942C1166.62 292.065 1199.15 324.591 1239.27 324.591C1279.4 324.591 1311.92 292.065 1311.92 251.942C1311.92 241.435 1309.69 231.448 1305.68 222.431C1305.06 214.138 1312.11 206.784 1319.24 200.235C1325.97 194.042 1322.04 185.386 1312.94 184.436C1311.22 184.256 1309.42 184.065 1307.55 183.868L1307.55 183.867C1289.17 181.919 1264.09 179.259 1239.71 179.259Z" fill="#1A1A1A"/>
<circle cx="1238.5" cy="253.5" r="67.5" fill="url(#paint7_radial_721_132)"/>
<circle cx="1064.5" cy="253.5" r="67.5" fill="url(#paint8_radial_721_132)"/>
<path fill-rule="evenodd" clip-rule="evenodd" d="M1077.54 186.06C1076.51 182.336 1067.48 160.641 1064.19 158.089C1028.55 143.831 1013.74 208.915 1062.09 212.504C1062.37 234.687 1110.08 247.849 1121.6 218.051C1148.22 223.716 1175.5 194.21 1156.77 170.725C1146.67 158.055 1114.48 160.73 1119.77 181.307C1119.16 183.265 1116.62 196.914 1116.66 198.857C1101.79 196.373 1091.36 185.793 1077.54 186.06Z" fill="#FFE8CC"/>
<path d="M1076.21 189.042C1054.58 206.815 1033.27 167.885 1063.95 158.224L1119.41 176.311C1151.65 168.25 1145.14 218.287 1116.34 204.334C1111.58 223.055 1068.22 215.624 1076.21 189.042Z" fill="white"/>
</g>
<defs>
<filter id="filter0_d_721_132" x="0.652686" y="0" width="1355.33" height="780.001" filterUnits="userSpaceOnUse" color-interpolation-filters="sRGB">
<feFlood flood-opacity="0" result="BackgroundImageFix"/>
<feColorMatrix in="SourceAlpha" type="matrix" values="0 0 0 0 0 0 0 0 0 0 0 0 0 0 0 0 0 0 127 0" result="hardAlpha"/>
<feOffset dx="7.94853" dy="11.9228"/>
<feGaussianBlur stdDeviation="5.9614"/>
<feColorMatrix type="matrix" values="0 0 0 0 0.108333 0 0 0 0 0 0 0 0 0 0.0455 0 0 0 0.22 0"/>
<feBlend mode="normal" in2="BackgroundImageFix" result="effect1_dropShadow_721_132"/>
<feBlend mode="normal" in="SourceGraphic" in2="effect1_dropShadow_721_132" result="shape"/>
</filter>
<linearGradient id="paint0_linear_721_132" x1="1224.11" y1="608.186" x2="1224.11" y2="631.985" gradientUnits="userSpaceOnUse">
<stop stop-color="#FFF5C3"/>
<stop offset="1" stop-color="#FFFEF9"/>
</linearGradient>
<linearGradient id="paint1_linear_721_132" x1="419.218" y1="607.905" x2="419.218" y2="631.703" gradientUnits="userSpaceOnUse">
<stop stop-color="#FFF5C3"/>
<stop offset="1" stop-color="#FFFEF9"/>
</linearGradient>
<linearGradient id="paint2_linear_721_132" x1="935.855" y1="298.121" x2="935.855" y2="645.51" gradientUnits="userSpaceOnUse">
<stop stop-color="white"/>
<stop offset="0.669454" stop-color="white"/>
<stop offset="1" stop-color="#FFF4BA"/>
</linearGradient>
<linearGradient id="paint3_linear_721_132" x1="935.855" y1="298.121" x2="935.855" y2="645.51" gradientUnits="userSpaceOnUse">
<stop stop-color="white"/>
<stop offset="0.669454" stop-color="white"/>
<stop offset="1" stop-color="#FFF4BA"/>
</linearGradient>
<linearGradient id="paint4_linear_721_132" x1="935.855" y1="298.121" x2="935.855" y2="645.51" gradientUnits="userSpaceOnUse">
<stop stop-color="white"/>
<stop offset="0.669454" stop-color="white"/>
<stop offset="1" stop-color="#FFF4BA"/>
</linearGradient>
<linearGradient id="paint5_linear_721_132" x1="1273.84" y1="703.096" x2="1273.84" y2="762.852" gradientUnits="userSpaceOnUse">
<stop stop-color="#FFF4BA"/>
<stop offset="0.365556" stop-color="white"/>
<stop offset="1" stop-color="white"/>
</linearGradient>
<linearGradient id="paint6_linear_721_132" x1="1157.34" y1="174.5" x2="1157.34" y2="586.995" gradientUnits="userSpaceOnUse">
<stop stop-color="white"/>
<stop offset="0.895833" stop-color="white"/>
<stop offset="1" stop-color="#FFF9DA"/>
</linearGradient>
<radialGradient id="paint7_radial_721_132" cx="0" cy="0" r="1" gradientUnits="userSpaceOnUse" gradientTransform="translate(1201.34 214.731) rotate(48.7826) scale(117.296)">
<stop stop-color="#B07DA8"/>
<stop offset="1" stop-color="#FFDE9E"/>
</radialGradient>
<radialGradient id="paint8_radial_721_132" cx="0" cy="0" r="1" gradientUnits="userSpaceOnUse" gradientTransform="translate(1027.34 214.731) rotate(48.7826) scale(117.296)">
<stop stop-color="#B07DA8"/>
<stop offset="1" stop-color="#FFDE9E"/>
</radialGradient>
</defs>
</svg>
